M48
; DRILL file {KiCad 6.0.7-f9a2dced07~116~ubuntu22.04.1} date Sun Sep 25 15:05:22 2022
; FORMAT={-:-/ absolute / metric / decimal}
; #@! TF.CreationDate,2022-09-25T15:05:22-07:00
; #@! TF.GenerationSoftware,Kicad,Pcbnew,6.0.7-f9a2dced07~116~ubuntu22.04.1
; #@! TF.FileFunction,MixedPlating,1,2
FMAT,2
METRIC
; #@! TA.AperFunction,Plated,PTH,ViaDrill
T1C0.350
; #@! TA.AperFunction,Plated,PTH,ComponentDrill
T2C0.350
; #@! TA.AperFunction,Plated,PTH,ViaDrill
T3C0.500
; #@! TA.AperFunction,Plated,PTH,ComponentDrill
T4C0.500
; #@! TA.AperFunction,Plated,PTH,ComponentDrill
T5C0.600
; #@! TA.AperFunction,Plated,PTH,ComponentDrill
T6C1.000
; #@! TA.AperFunction,Plated,PTH,ComponentDrill
T7C3.200
; #@! TA.AperFunction,NonPlated,NPTH,ComponentDrill
T8C0.650
; #@! TA.AperFunction,NonPlated,NPTH,ComponentDrill
T9C0.700
%
G90
G05
T1
X166.853Y-136.195
X167.056Y-137.49
X169.647Y-136.322
X170.346Y-137.283
X209.22Y-140.31
X209.347Y-130.581
X210.629Y-130.112
X211.379Y-127.432
X211.379Y-140.056
X212.268Y-129.591
T2
X201.646Y-128.435
X202.548Y-127.534
X202.548Y-129.337
X203.449Y-126.632
X203.449Y-128.435
X203.449Y-130.238
X204.351Y-127.534
X204.351Y-129.337
X205.252Y-128.435
T3
X156.083Y-132.842
X157.226Y-130.302
X157.226Y-136.144
X157.226Y-140.335
X161.29Y-119.126
X161.29Y-128.016
X161.798Y-120.142
X161.798Y-126.746
X163.576Y-130.683
X163.83Y-132.805
X163.83Y-134.62
X166.116Y-130.302
X167.64Y-107.95
X168.402Y-128.778
X168.402Y-131.318
X168.935Y-141.58
X169.164Y-109.093
X170.307Y-132.461
X170.434Y-130.302
X172.132Y-140.074
X173.99Y-107.696
X176.022Y-104.394
X179.324Y-124.206
X184.15Y-132.842
X184.78Y-107.15
X191.16Y-111.15
X191.668Y-123.952
X191.719Y-121.31
X191.922Y-119.431
X192.532Y-106.934
X193.294Y-124.968
X193.294Y-125.984
X194.513Y-108.509
X195.217Y-127.315
X195.58Y-104.775
X196.596Y-132.842
X196.637Y-125.537
X199.898Y-120.142
X201.066Y-122.377
X201.397Y-127.229
X201.515Y-129.982
X201.676Y-134.874
X202.438Y-120.396
X203.962Y-106.172
X204.216Y-120.142
X207.518Y-120.015
X209.88Y-119.286
X210.007Y-120.701
X212.332Y-116.853
X212.344Y-123.952
X212.59Y-117.824
X214.274Y-139.141
X214.578Y-129.743
X214.757Y-106.426
X215.646Y-127.508
X216.002Y-119.228
X216.002Y-122.225
X217.424Y-123.698
X217.678Y-114.808
X219.456Y-129.642
X219.456Y-133.655
X219.464Y-124.569
X220.777Y-121.818
X221.844Y-116.535
X221.945Y-121.818
X222.098Y-136.398
X222.148Y-127.559
X223.164Y-116.535
X224.434Y-116.535
X224.663Y-106.426
X225.247Y-121.056
X225.247Y-124.765
X234.569Y-106.426
X240.665Y-104.267
X242.57Y-128.067
X243.738Y-126.746
X246.38Y-146.812
X250.063Y-144.526
X251.249Y-142.551
T6
X155.702Y-149.073
X155.702Y-151.613
X158.242Y-149.073
X158.242Y-151.613
X160.782Y-149.073
X160.782Y-151.613
X163.322Y-149.073
X163.322Y-151.613
X165.862Y-149.073
X165.862Y-151.613
X168.402Y-149.073
X168.402Y-151.613
X170.942Y-149.073
X170.942Y-151.613
X173.482Y-149.073
X173.482Y-151.613
X176.022Y-149.073
X176.022Y-151.613
X178.562Y-149.073
X178.562Y-151.613
X181.102Y-149.073
X181.102Y-151.613
X183.642Y-149.073
X183.642Y-151.613
X186.182Y-149.073
X186.182Y-151.613
X188.722Y-149.073
X188.722Y-151.613
X191.262Y-149.073
X191.262Y-151.613
X193.289Y-110.033
X193.802Y-149.073
X193.802Y-151.613
X195.829Y-110.033
X196.342Y-149.073
X196.342Y-151.613
X198.369Y-110.033
X198.882Y-149.073
X198.882Y-151.613
X200.909Y-110.033
X201.422Y-149.073
X201.422Y-151.613
X203.449Y-110.033
X203.962Y-149.073
X203.962Y-151.613
X205.989Y-110.033
X206.502Y-149.073
X206.502Y-151.613
X208.529Y-110.033
X209.042Y-149.073
X209.042Y-151.613
X211.069Y-110.033
X211.582Y-149.073
X211.582Y-151.613
X213.609Y-110.033
X214.122Y-149.073
X214.122Y-151.613
X216.149Y-110.033
X216.662Y-149.073
X216.662Y-151.613
X219.202Y-149.073
X219.202Y-151.613
X221.742Y-149.073
X221.742Y-151.613
X224.282Y-149.073
X224.282Y-151.613
X226.822Y-149.073
X226.822Y-151.613
X229.362Y-149.073
X229.362Y-151.613
X231.902Y-149.073
X231.902Y-151.613
X234.442Y-149.073
X234.442Y-151.613
X236.982Y-149.073
X236.982Y-151.613
X239.522Y-149.073
X239.522Y-151.613
X242.062Y-149.073
X242.062Y-151.613
X244.602Y-149.073
X244.602Y-151.613
X245.556Y-120.922
X245.556Y-123.212
X245.556Y-125.502
X245.556Y-127.792
X245.556Y-130.082
X247.142Y-149.073
X247.142Y-151.613
X247.536Y-119.777
X247.536Y-122.067
X247.536Y-124.357
X247.536Y-126.647
X247.536Y-128.937
X249.516Y-120.922
X249.516Y-123.212
X249.516Y-125.502
X249.516Y-127.792
X249.516Y-130.082
X249.682Y-149.073
X249.682Y-151.613
X252.222Y-149.073
X252.222Y-151.613
T7
X247.606Y-112.737
X247.606Y-137.737
T8
X158.782Y-120.554
X158.782Y-126.334
T9
X171.362Y-104.91
X173.062Y-104.91
X181.362Y-104.91
X183.062Y-104.91
X213.94Y-104.91
X215.64Y-104.91
X223.94Y-104.91
X225.64Y-104.91
X233.94Y-104.91
X235.64Y-104.91
T4
X159.882Y-119.124G85X158.682Y-119.124
G05
X159.882Y-127.764G85X158.682Y-127.764
G05
T5
X155.402Y-119.124G85X154.802Y-119.124
G05
X155.402Y-127.764G85X154.802Y-127.764
G05
T0
M30
