G04 #@! TF.GenerationSoftware,KiCad,Pcbnew,6.0.7-f9a2dced07~116~ubuntu22.04.1*
G04 #@! TF.CreationDate,2022-09-25T17:36:41-07:00*
G04 #@! TF.ProjectId,rc2014compat-pico-vga,72633230-3134-4636-9f6d-7061742d7069,rev?*
G04 #@! TF.SameCoordinates,Original*
G04 #@! TF.FileFunction,Legend,Bot*
G04 #@! TF.FilePolarity,Positive*
%FSLAX46Y46*%
G04 Gerber Fmt 4.6, Leading zero omitted, Abs format (unit mm)*
G04 Created by KiCad (PCBNEW 6.0.7-f9a2dced07~116~ubuntu22.04.1) date 2022-09-25 17:36:41*
%MOMM*%
%LPD*%
G01*
G04 APERTURE LIST*
%ADD10C,1.200000*%
%ADD11C,0.500000*%
%ADD12C,0.120000*%
G04 APERTURE END LIST*
D10*
X220841314Y-112281885D02*
X220841314Y-106281885D01*
X218555600Y-106281885D01*
X217984171Y-106567600D01*
X217698457Y-106853314D01*
X217412742Y-107424742D01*
X217412742Y-108281885D01*
X217698457Y-108853314D01*
X217984171Y-109139028D01*
X218555600Y-109424742D01*
X220841314Y-109424742D01*
X214841314Y-112281885D02*
X214841314Y-108281885D01*
X214841314Y-106281885D02*
X215127028Y-106567600D01*
X214841314Y-106853314D01*
X214555600Y-106567600D01*
X214841314Y-106281885D01*
X214841314Y-106853314D01*
X207412742Y-112281885D02*
X207412742Y-106281885D01*
X205127028Y-106281885D01*
X204555600Y-106567600D01*
X204269885Y-106853314D01*
X203984171Y-107424742D01*
X203984171Y-108281885D01*
X204269885Y-108853314D01*
X204555600Y-109139028D01*
X205127028Y-109424742D01*
X207412742Y-109424742D01*
X201412742Y-112281885D02*
X201412742Y-108281885D01*
X201412742Y-106281885D02*
X201698457Y-106567600D01*
X201412742Y-106853314D01*
X201127028Y-106567600D01*
X201412742Y-106281885D01*
X201412742Y-106853314D01*
X195984171Y-111996171D02*
X196555600Y-112281885D01*
X197698457Y-112281885D01*
X198269885Y-111996171D01*
X198555600Y-111710457D01*
X198841314Y-111139028D01*
X198841314Y-109424742D01*
X198555600Y-108853314D01*
X198269885Y-108567600D01*
X197698457Y-108281885D01*
X196555600Y-108281885D01*
X195984171Y-108567600D01*
X192555600Y-112281885D02*
X193127028Y-111996171D01*
X193412742Y-111710457D01*
X193698457Y-111139028D01*
X193698457Y-109424742D01*
X193412742Y-108853314D01*
X193127028Y-108567600D01*
X192555600Y-108281885D01*
X191698457Y-108281885D01*
X191127028Y-108567600D01*
X190841314Y-108853314D01*
X190555600Y-109424742D01*
X190555600Y-111139028D01*
X190841314Y-111710457D01*
X191127028Y-111996171D01*
X191698457Y-112281885D01*
X192555600Y-112281885D01*
X232555600Y-115941885D02*
X230555600Y-121941885D01*
X228555600Y-115941885D01*
X223412742Y-116227600D02*
X223984171Y-115941885D01*
X224841314Y-115941885D01*
X225698457Y-116227600D01*
X226269885Y-116799028D01*
X226555600Y-117370457D01*
X226841314Y-118513314D01*
X226841314Y-119370457D01*
X226555600Y-120513314D01*
X226269885Y-121084742D01*
X225698457Y-121656171D01*
X224841314Y-121941885D01*
X224269885Y-121941885D01*
X223412742Y-121656171D01*
X223127028Y-121370457D01*
X223127028Y-119370457D01*
X224269885Y-119370457D01*
X220841314Y-120227600D02*
X217984171Y-120227600D01*
X221412742Y-121941885D02*
X219412742Y-115941885D01*
X217412742Y-121941885D01*
X211698457Y-115941885D02*
X208269885Y-115941885D01*
X209984171Y-121941885D02*
X209984171Y-115941885D01*
X203984171Y-121656171D02*
X204555600Y-121941885D01*
X205698457Y-121941885D01*
X206269885Y-121656171D01*
X206555600Y-121084742D01*
X206555600Y-118799028D01*
X206269885Y-118227600D01*
X205698457Y-117941885D01*
X204555600Y-117941885D01*
X203984171Y-118227600D01*
X203698457Y-118799028D01*
X203698457Y-119370457D01*
X206555600Y-119941885D01*
X201127028Y-121941885D02*
X201127028Y-117941885D01*
X201127028Y-119084742D02*
X200841314Y-118513314D01*
X200555600Y-118227600D01*
X199984171Y-117941885D01*
X199412742Y-117941885D01*
X197412742Y-121941885D02*
X197412742Y-117941885D01*
X197412742Y-118513314D02*
X197127028Y-118227600D01*
X196555600Y-117941885D01*
X195698457Y-117941885D01*
X195127028Y-118227600D01*
X194841314Y-118799028D01*
X194841314Y-121941885D01*
X194841314Y-118799028D02*
X194555600Y-118227600D01*
X193984171Y-117941885D01*
X193127028Y-117941885D01*
X192555600Y-118227600D01*
X192269885Y-118799028D01*
X192269885Y-121941885D01*
X189412742Y-121941885D02*
X189412742Y-117941885D01*
X189412742Y-115941885D02*
X189698457Y-116227600D01*
X189412742Y-116513314D01*
X189127028Y-116227600D01*
X189412742Y-115941885D01*
X189412742Y-116513314D01*
X186555600Y-117941885D02*
X186555600Y-121941885D01*
X186555600Y-118513314D02*
X186269885Y-118227600D01*
X185698457Y-117941885D01*
X184841314Y-117941885D01*
X184269885Y-118227600D01*
X183984171Y-118799028D01*
X183984171Y-121941885D01*
X178555600Y-121941885D02*
X178555600Y-118799028D01*
X178841314Y-118227600D01*
X179412742Y-117941885D01*
X180555600Y-117941885D01*
X181127028Y-118227600D01*
X178555600Y-121656171D02*
X179127028Y-121941885D01*
X180555600Y-121941885D01*
X181127028Y-121656171D01*
X181412742Y-121084742D01*
X181412742Y-120513314D01*
X181127028Y-119941885D01*
X180555600Y-119656171D01*
X179127028Y-119656171D01*
X178555600Y-119370457D01*
X174841314Y-121941885D02*
X175412742Y-121656171D01*
X175698457Y-121084742D01*
X175698457Y-115941885D01*
X223841314Y-131030457D02*
X224127028Y-131316171D01*
X224984171Y-131601885D01*
X225555600Y-131601885D01*
X226412742Y-131316171D01*
X226984171Y-130744742D01*
X227269885Y-130173314D01*
X227555600Y-129030457D01*
X227555600Y-128173314D01*
X227269885Y-127030457D01*
X226984171Y-126459028D01*
X226412742Y-125887600D01*
X225555600Y-125601885D01*
X224984171Y-125601885D01*
X224127028Y-125887600D01*
X223841314Y-126173314D01*
X220412742Y-131601885D02*
X220984171Y-131316171D01*
X221269885Y-131030457D01*
X221555600Y-130459028D01*
X221555600Y-128744742D01*
X221269885Y-128173314D01*
X220984171Y-127887600D01*
X220412742Y-127601885D01*
X219555600Y-127601885D01*
X218984171Y-127887600D01*
X218698457Y-128173314D01*
X218412742Y-128744742D01*
X218412742Y-130459028D01*
X218698457Y-131030457D01*
X218984171Y-131316171D01*
X219555600Y-131601885D01*
X220412742Y-131601885D01*
X215841314Y-131601885D02*
X215841314Y-127601885D01*
X215841314Y-128173314D02*
X215555600Y-127887600D01*
X214984171Y-127601885D01*
X214127028Y-127601885D01*
X213555600Y-127887600D01*
X213269885Y-128459028D01*
X213269885Y-131601885D01*
X213269885Y-128459028D02*
X212984171Y-127887600D01*
X212412742Y-127601885D01*
X211555600Y-127601885D01*
X210984171Y-127887600D01*
X210698457Y-128459028D01*
X210698457Y-131601885D01*
X207841314Y-127601885D02*
X207841314Y-133601885D01*
X207841314Y-127887600D02*
X207269885Y-127601885D01*
X206127028Y-127601885D01*
X205555600Y-127887600D01*
X205269885Y-128173314D01*
X204984171Y-128744742D01*
X204984171Y-130459028D01*
X205269885Y-131030457D01*
X205555600Y-131316171D01*
X206127028Y-131601885D01*
X207269885Y-131601885D01*
X207841314Y-131316171D01*
X199841314Y-131601885D02*
X199841314Y-128459028D01*
X200127028Y-127887600D01*
X200698457Y-127601885D01*
X201841314Y-127601885D01*
X202412742Y-127887600D01*
X199841314Y-131316171D02*
X200412742Y-131601885D01*
X201841314Y-131601885D01*
X202412742Y-131316171D01*
X202698457Y-130744742D01*
X202698457Y-130173314D01*
X202412742Y-129601885D01*
X201841314Y-129316171D01*
X200412742Y-129316171D01*
X199841314Y-129030457D01*
X197841314Y-127601885D02*
X195555600Y-127601885D01*
X196984171Y-125601885D02*
X196984171Y-130744742D01*
X196698457Y-131316171D01*
X196127028Y-131601885D01*
X195555600Y-131601885D01*
X193555600Y-131601885D02*
X193555600Y-127601885D01*
X193555600Y-125601885D02*
X193841314Y-125887600D01*
X193555600Y-126173314D01*
X193269885Y-125887600D01*
X193555600Y-125601885D01*
X193555600Y-126173314D01*
X190698457Y-131601885D02*
X190698457Y-125601885D01*
X190698457Y-127887600D02*
X190127028Y-127601885D01*
X188984171Y-127601885D01*
X188412742Y-127887600D01*
X188127028Y-128173314D01*
X187841314Y-128744742D01*
X187841314Y-130459028D01*
X188127028Y-131030457D01*
X188412742Y-131316171D01*
X188984171Y-131601885D01*
X190127028Y-131601885D01*
X190698457Y-131316171D01*
X184412742Y-131601885D02*
X184984171Y-131316171D01*
X185269885Y-130744742D01*
X185269885Y-125601885D01*
X179841314Y-131316171D02*
X180412742Y-131601885D01*
X181555600Y-131601885D01*
X182127028Y-131316171D01*
X182412742Y-130744742D01*
X182412742Y-128459028D01*
X182127028Y-127887600D01*
X181555600Y-127601885D01*
X180412742Y-127601885D01*
X179841314Y-127887600D01*
X179555600Y-128459028D01*
X179555600Y-129030457D01*
X182412742Y-129601885D01*
D11*
X239241304Y-145951580D02*
X239336542Y-145856342D01*
X239527019Y-145761104D01*
X239717495Y-145761104D01*
X239907971Y-145856342D01*
X240003209Y-145951580D01*
X240098447Y-146142057D01*
X240098447Y-146332533D01*
X240003209Y-146523009D01*
X239907971Y-146618247D01*
X239717495Y-146713485D01*
X239527019Y-146713485D01*
X239336542Y-146618247D01*
X239241304Y-146523009D01*
X239241304Y-145761104D02*
X239241304Y-146523009D01*
X239146066Y-146618247D01*
X239050828Y-146618247D01*
X238860352Y-146523009D01*
X238765114Y-146332533D01*
X238765114Y-145856342D01*
X238955590Y-145570628D01*
X239241304Y-145380152D01*
X239622257Y-145284914D01*
X240003209Y-145380152D01*
X240288923Y-145570628D01*
X240479400Y-145856342D01*
X240574638Y-146237295D01*
X240479400Y-146618247D01*
X240288923Y-146903961D01*
X240003209Y-147094438D01*
X239622257Y-147189676D01*
X239241304Y-147094438D01*
X238955590Y-146903961D01*
X238193685Y-144903961D02*
X237050828Y-144903961D01*
X237622257Y-146903961D02*
X237622257Y-144903961D01*
X236098447Y-146903961D02*
X236288923Y-146808723D01*
X236384161Y-146713485D01*
X236479400Y-146523009D01*
X236479400Y-145951580D01*
X236384161Y-145761104D01*
X236288923Y-145665866D01*
X236098447Y-145570628D01*
X235812733Y-145570628D01*
X235622257Y-145665866D01*
X235527019Y-145761104D01*
X235431780Y-145951580D01*
X235431780Y-146523009D01*
X235527019Y-146713485D01*
X235622257Y-146808723D01*
X235812733Y-146903961D01*
X236098447Y-146903961D01*
X234574638Y-146903961D02*
X234574638Y-145570628D01*
X234574638Y-145761104D02*
X234479400Y-145665866D01*
X234288923Y-145570628D01*
X234003209Y-145570628D01*
X233812733Y-145665866D01*
X233717495Y-145856342D01*
X233717495Y-146903961D01*
X233717495Y-145856342D02*
X233622257Y-145665866D01*
X233431780Y-145570628D01*
X233146066Y-145570628D01*
X232955590Y-145665866D01*
X232860352Y-145856342D01*
X232860352Y-146903961D01*
X231907971Y-146903961D02*
X231907971Y-144903961D01*
X230765114Y-146903961D02*
X231622257Y-145761104D01*
X230765114Y-144903961D02*
X231907971Y-146046819D01*
X229146066Y-146808723D02*
X229336542Y-146903961D01*
X229717495Y-146903961D01*
X229907971Y-146808723D01*
X230003209Y-146618247D01*
X230003209Y-145856342D01*
X229907971Y-145665866D01*
X229717495Y-145570628D01*
X229336542Y-145570628D01*
X229146066Y-145665866D01*
X229050828Y-145856342D01*
X229050828Y-146046819D01*
X230003209Y-146237295D01*
X227336542Y-146903961D02*
X227336542Y-144903961D01*
X227336542Y-146808723D02*
X227527019Y-146903961D01*
X227907971Y-146903961D01*
X228098447Y-146808723D01*
X228193685Y-146713485D01*
X228288923Y-146523009D01*
X228288923Y-145951580D01*
X228193685Y-145761104D01*
X228098447Y-145665866D01*
X227907971Y-145570628D01*
X227527019Y-145570628D01*
X227336542Y-145665866D01*
X225527019Y-146903961D02*
X225527019Y-144903961D01*
X225527019Y-146808723D02*
X225717495Y-146903961D01*
X226098447Y-146903961D01*
X226288923Y-146808723D01*
X226384161Y-146713485D01*
X226479400Y-146523009D01*
X226479400Y-145951580D01*
X226384161Y-145761104D01*
X226288923Y-145665866D01*
X226098447Y-145570628D01*
X225717495Y-145570628D01*
X225527019Y-145665866D01*
X224574638Y-146903961D02*
X224574638Y-145570628D01*
X224574638Y-144903961D02*
X224669876Y-144999200D01*
X224574638Y-145094438D01*
X224479400Y-144999200D01*
X224574638Y-144903961D01*
X224574638Y-145094438D01*
X222860352Y-146808723D02*
X223050828Y-146903961D01*
X223431780Y-146903961D01*
X223622257Y-146808723D01*
X223717495Y-146618247D01*
X223717495Y-145856342D01*
X223622257Y-145665866D01*
X223431780Y-145570628D01*
X223050828Y-145570628D01*
X222860352Y-145665866D01*
X222765114Y-145856342D01*
X222765114Y-146046819D01*
X223717495Y-146237295D01*
X220384161Y-146142057D02*
X218860352Y-146142057D01*
X216384161Y-146903961D02*
X216384161Y-144903961D01*
X215907971Y-144903961D01*
X215622257Y-144999200D01*
X215431780Y-145189676D01*
X215336542Y-145380152D01*
X215241304Y-145761104D01*
X215241304Y-146046819D01*
X215336542Y-146427771D01*
X215431780Y-146618247D01*
X215622257Y-146808723D01*
X215907971Y-146903961D01*
X216384161Y-146903961D01*
X213622257Y-146808723D02*
X213812733Y-146903961D01*
X214193685Y-146903961D01*
X214384161Y-146808723D01*
X214479400Y-146618247D01*
X214479400Y-145856342D01*
X214384161Y-145665866D01*
X214193685Y-145570628D01*
X213812733Y-145570628D01*
X213622257Y-145665866D01*
X213527019Y-145856342D01*
X213527019Y-146046819D01*
X214479400Y-146237295D01*
X212765114Y-146808723D02*
X212574638Y-146903961D01*
X212193685Y-146903961D01*
X212003209Y-146808723D01*
X211907971Y-146618247D01*
X211907971Y-146523009D01*
X212003209Y-146332533D01*
X212193685Y-146237295D01*
X212479400Y-146237295D01*
X212669876Y-146142057D01*
X212765114Y-145951580D01*
X212765114Y-145856342D01*
X212669876Y-145665866D01*
X212479400Y-145570628D01*
X212193685Y-145570628D01*
X212003209Y-145665866D01*
X211050828Y-146903961D02*
X211050828Y-145570628D01*
X211050828Y-144903961D02*
X211146066Y-144999200D01*
X211050828Y-145094438D01*
X210955590Y-144999200D01*
X211050828Y-144903961D01*
X211050828Y-145094438D01*
X209241304Y-145570628D02*
X209241304Y-147189676D01*
X209336542Y-147380152D01*
X209431780Y-147475390D01*
X209622257Y-147570628D01*
X209907971Y-147570628D01*
X210098447Y-147475390D01*
X209241304Y-146808723D02*
X209431780Y-146903961D01*
X209812733Y-146903961D01*
X210003209Y-146808723D01*
X210098447Y-146713485D01*
X210193685Y-146523009D01*
X210193685Y-145951580D01*
X210098447Y-145761104D01*
X210003209Y-145665866D01*
X209812733Y-145570628D01*
X209431780Y-145570628D01*
X209241304Y-145665866D01*
X208288923Y-145570628D02*
X208288923Y-146903961D01*
X208288923Y-145761104D02*
X208193685Y-145665866D01*
X208003209Y-145570628D01*
X207717495Y-145570628D01*
X207527019Y-145665866D01*
X207431780Y-145856342D01*
X207431780Y-146903961D01*
X205717495Y-146808723D02*
X205907971Y-146903961D01*
X206288923Y-146903961D01*
X206479400Y-146808723D01*
X206574638Y-146618247D01*
X206574638Y-145856342D01*
X206479400Y-145665866D01*
X206288923Y-145570628D01*
X205907971Y-145570628D01*
X205717495Y-145665866D01*
X205622257Y-145856342D01*
X205622257Y-146046819D01*
X206574638Y-146237295D01*
X203907971Y-146903961D02*
X203907971Y-144903961D01*
X203907971Y-146808723D02*
X204098447Y-146903961D01*
X204479400Y-146903961D01*
X204669876Y-146808723D01*
X204765114Y-146713485D01*
X204860352Y-146523009D01*
X204860352Y-145951580D01*
X204765114Y-145761104D01*
X204669876Y-145665866D01*
X204479400Y-145570628D01*
X204098447Y-145570628D01*
X203907971Y-145665866D01*
X201717495Y-145570628D02*
X200955590Y-145570628D01*
X201431780Y-146903961D02*
X201431780Y-145189676D01*
X201336542Y-144999200D01*
X201146066Y-144903961D01*
X200955590Y-144903961D01*
X200003209Y-146903961D02*
X200193685Y-146808723D01*
X200288923Y-146713485D01*
X200384161Y-146523009D01*
X200384161Y-145951580D01*
X200288923Y-145761104D01*
X200193685Y-145665866D01*
X200003209Y-145570628D01*
X199717495Y-145570628D01*
X199527019Y-145665866D01*
X199431780Y-145761104D01*
X199336542Y-145951580D01*
X199336542Y-146523009D01*
X199431780Y-146713485D01*
X199527019Y-146808723D01*
X199717495Y-146903961D01*
X200003209Y-146903961D01*
X198479400Y-146903961D02*
X198479400Y-145570628D01*
X198479400Y-145951580D02*
X198384161Y-145761104D01*
X198288923Y-145665866D01*
X198098447Y-145570628D01*
X197907971Y-145570628D01*
X194574638Y-146903961D02*
X195241304Y-145951580D01*
X195717495Y-146903961D02*
X195717495Y-144903961D01*
X194955590Y-144903961D01*
X194765114Y-144999200D01*
X194669876Y-145094438D01*
X194574638Y-145284914D01*
X194574638Y-145570628D01*
X194669876Y-145761104D01*
X194765114Y-145856342D01*
X194955590Y-145951580D01*
X195717495Y-145951580D01*
X192574638Y-146713485D02*
X192669876Y-146808723D01*
X192955590Y-146903961D01*
X193146066Y-146903961D01*
X193431780Y-146808723D01*
X193622257Y-146618247D01*
X193717495Y-146427771D01*
X193812733Y-146046819D01*
X193812733Y-145761104D01*
X193717495Y-145380152D01*
X193622257Y-145189676D01*
X193431780Y-144999200D01*
X193146066Y-144903961D01*
X192955590Y-144903961D01*
X192669876Y-144999200D01*
X192574638Y-145094438D01*
X191812733Y-145094438D02*
X191717495Y-144999200D01*
X191527019Y-144903961D01*
X191050828Y-144903961D01*
X190860352Y-144999200D01*
X190765114Y-145094438D01*
X190669876Y-145284914D01*
X190669876Y-145475390D01*
X190765114Y-145761104D01*
X191907971Y-146903961D01*
X190669876Y-146903961D01*
X189431780Y-144903961D02*
X189241304Y-144903961D01*
X189050828Y-144999200D01*
X188955590Y-145094438D01*
X188860352Y-145284914D01*
X188765114Y-145665866D01*
X188765114Y-146142057D01*
X188860352Y-146523009D01*
X188955590Y-146713485D01*
X189050828Y-146808723D01*
X189241304Y-146903961D01*
X189431780Y-146903961D01*
X189622257Y-146808723D01*
X189717495Y-146713485D01*
X189812733Y-146523009D01*
X189907971Y-146142057D01*
X189907971Y-145665866D01*
X189812733Y-145284914D01*
X189717495Y-145094438D01*
X189622257Y-144999200D01*
X189431780Y-144903961D01*
X186860352Y-146903961D02*
X188003209Y-146903961D01*
X187431780Y-146903961D02*
X187431780Y-144903961D01*
X187622257Y-145189676D01*
X187812733Y-145380152D01*
X188003209Y-145475390D01*
X185146066Y-145570628D02*
X185146066Y-146903961D01*
X185622257Y-144808723D02*
X186098447Y-146237295D01*
X184860352Y-146237295D01*
X182574638Y-146142057D02*
X181050828Y-146142057D01*
X178669876Y-146808723D02*
X178384161Y-146903961D01*
X177907971Y-146903961D01*
X177717495Y-146808723D01*
X177622257Y-146713485D01*
X177527019Y-146523009D01*
X177527019Y-146332533D01*
X177622257Y-146142057D01*
X177717495Y-146046819D01*
X177907971Y-145951580D01*
X178288923Y-145856342D01*
X178479400Y-145761104D01*
X178574638Y-145665866D01*
X178669876Y-145475390D01*
X178669876Y-145284914D01*
X178574638Y-145094438D01*
X178479400Y-144999200D01*
X178288923Y-144903961D01*
X177812733Y-144903961D01*
X177527019Y-144999200D01*
X175907971Y-146808723D02*
X176098447Y-146903961D01*
X176479400Y-146903961D01*
X176669876Y-146808723D01*
X176765114Y-146618247D01*
X176765114Y-145856342D01*
X176669876Y-145665866D01*
X176479400Y-145570628D01*
X176098447Y-145570628D01*
X175907971Y-145665866D01*
X175812733Y-145856342D01*
X175812733Y-146046819D01*
X176765114Y-146237295D01*
X174955590Y-145570628D02*
X174955590Y-147570628D01*
X174955590Y-145665866D02*
X174765114Y-145570628D01*
X174384161Y-145570628D01*
X174193685Y-145665866D01*
X174098447Y-145761104D01*
X174003209Y-145951580D01*
X174003209Y-146523009D01*
X174098447Y-146713485D01*
X174193685Y-146808723D01*
X174384161Y-146903961D01*
X174765114Y-146903961D01*
X174955590Y-146808723D01*
X173241304Y-145094438D02*
X173146066Y-144999200D01*
X172955590Y-144903961D01*
X172479400Y-144903961D01*
X172288923Y-144999200D01*
X172193685Y-145094438D01*
X172098447Y-145284914D01*
X172098447Y-145475390D01*
X172193685Y-145761104D01*
X173336542Y-146903961D01*
X172098447Y-146903961D01*
X170860352Y-144903961D02*
X170669876Y-144903961D01*
X170479400Y-144999200D01*
X170384161Y-145094438D01*
X170288923Y-145284914D01*
X170193685Y-145665866D01*
X170193685Y-146142057D01*
X170288923Y-146523009D01*
X170384161Y-146713485D01*
X170479400Y-146808723D01*
X170669876Y-146903961D01*
X170860352Y-146903961D01*
X171050828Y-146808723D01*
X171146066Y-146713485D01*
X171241304Y-146523009D01*
X171336542Y-146142057D01*
X171336542Y-145665866D01*
X171241304Y-145284914D01*
X171146066Y-145094438D01*
X171050828Y-144999200D01*
X170860352Y-144903961D01*
X169431780Y-145094438D02*
X169336542Y-144999200D01*
X169146066Y-144903961D01*
X168669876Y-144903961D01*
X168479400Y-144999200D01*
X168384161Y-145094438D01*
X168288923Y-145284914D01*
X168288923Y-145475390D01*
X168384161Y-145761104D01*
X169527019Y-146903961D01*
X168288923Y-146903961D01*
X167527019Y-145094438D02*
X167431780Y-144999200D01*
X167241304Y-144903961D01*
X166765114Y-144903961D01*
X166574638Y-144999200D01*
X166479400Y-145094438D01*
X166384161Y-145284914D01*
X166384161Y-145475390D01*
X166479400Y-145761104D01*
X167622257Y-146903961D01*
X166384161Y-146903961D01*
D12*
G04 #@! TO.C,J5*
X162942000Y-152655529D02*
X162942000Y-153052600D01*
X219582000Y-161712600D02*
X219582000Y-155712600D01*
X201042000Y-155712600D02*
X201042000Y-161712600D01*
X193422000Y-152655529D02*
X193422000Y-153052600D01*
X221362000Y-161712600D02*
X222122000Y-161712600D01*
X211962000Y-161712600D02*
X211962000Y-155712600D01*
X241682000Y-161712600D02*
X242442000Y-161712600D01*
X195962000Y-155712600D02*
X195962000Y-161712600D01*
X178942000Y-161712600D02*
X178942000Y-155712600D01*
X169672000Y-153052600D02*
X169672000Y-155712600D01*
X214502000Y-152655529D02*
X214502000Y-153052600D01*
X173102000Y-155712600D02*
X173102000Y-161712600D01*
X209422000Y-152655529D02*
X209422000Y-153052600D01*
X178942000Y-152655529D02*
X178942000Y-153052600D01*
X236602000Y-152655529D02*
X236602000Y-153052600D01*
X252602000Y-152655529D02*
X252602000Y-153052600D01*
X221362000Y-152655529D02*
X221362000Y-153052600D01*
X191642000Y-152655529D02*
X191642000Y-153052600D01*
X190882000Y-161712600D02*
X191642000Y-161712600D01*
X180722000Y-155712600D02*
X180722000Y-161712600D01*
X194182000Y-152655529D02*
X194182000Y-153052600D01*
X168782000Y-152655529D02*
X168782000Y-153052600D01*
X253552000Y-155712600D02*
X154372000Y-155712600D01*
X155742000Y-155712600D02*
X155742000Y-161712600D01*
X244982000Y-152655529D02*
X244982000Y-153052600D01*
X216282000Y-155712600D02*
X216282000Y-161712600D01*
X201042000Y-152655529D02*
X201042000Y-153052600D01*
X195962000Y-161712600D02*
X196722000Y-161712600D01*
X166242000Y-161712600D02*
X166242000Y-155712600D01*
X171322000Y-161712600D02*
X171322000Y-155712600D01*
X251842000Y-152655529D02*
X251842000Y-153052600D01*
X231522000Y-155712600D02*
X231522000Y-161712600D01*
X201802000Y-161712600D02*
X201802000Y-155712600D01*
X157862000Y-155712600D02*
X157862000Y-161712600D01*
X228982000Y-152655529D02*
X228982000Y-153052600D01*
X155382000Y-155712600D02*
X155382000Y-161712600D01*
X203582000Y-152655529D02*
X203582000Y-153052600D01*
X230632000Y-153052600D02*
X230632000Y-155712600D01*
X189992000Y-153052600D02*
X189992000Y-155712600D01*
X245872000Y-153052600D02*
X245872000Y-155712600D01*
X239142000Y-152655529D02*
X239142000Y-153052600D01*
X183262000Y-152655529D02*
X183262000Y-153052600D01*
X239142000Y-155712600D02*
X239142000Y-161712600D01*
X249302000Y-161712600D02*
X250062000Y-161712600D01*
X231522000Y-152655529D02*
X231522000Y-153052600D01*
X184022000Y-152655529D02*
X184022000Y-153052600D01*
X159512000Y-153052600D02*
X159512000Y-155712600D01*
X170562000Y-152655529D02*
X170562000Y-153052600D01*
X198502000Y-161712600D02*
X199262000Y-161712600D01*
X218822000Y-161712600D02*
X219582000Y-161712600D01*
X177292000Y-153052600D02*
X177292000Y-155712600D01*
X190882000Y-155712600D02*
X190882000Y-161712600D01*
X211962000Y-152655529D02*
X211962000Y-153052600D01*
X206122000Y-161712600D02*
X206882000Y-161712600D01*
X237362000Y-161712600D02*
X237362000Y-155712600D01*
X161162000Y-152655529D02*
X161162000Y-153052600D01*
X168022000Y-161712600D02*
X168782000Y-161712600D01*
X199262000Y-161712600D02*
X199262000Y-155712600D01*
X167132000Y-153052600D02*
X167132000Y-155712600D01*
X234822000Y-161712600D02*
X234822000Y-155712600D01*
X205232000Y-153052600D02*
X205232000Y-155712600D01*
X246762000Y-161712600D02*
X247522000Y-161712600D01*
X239902000Y-161712600D02*
X239902000Y-155712600D01*
X182372000Y-153052600D02*
X182372000Y-155712600D01*
X226442000Y-161712600D02*
X227202000Y-161712600D01*
X234062000Y-155712600D02*
X234062000Y-161712600D01*
X185802000Y-152655529D02*
X185802000Y-153052600D01*
X209422000Y-161712600D02*
X209422000Y-155712600D01*
X218822000Y-152655529D02*
X218822000Y-153052600D01*
X223902000Y-161712600D02*
X224662000Y-161712600D01*
X232282000Y-161712600D02*
X232282000Y-155712600D01*
X232282000Y-152655529D02*
X232282000Y-153052600D01*
X172212000Y-153052600D02*
X172212000Y-155712600D01*
X194182000Y-161712600D02*
X194182000Y-155712600D01*
X195072000Y-153052600D02*
X195072000Y-155712600D01*
X203582000Y-155712600D02*
X203582000Y-161712600D01*
X193422000Y-161712600D02*
X194182000Y-161712600D01*
X202692000Y-153052600D02*
X202692000Y-155712600D01*
X178182000Y-155712600D02*
X178182000Y-161712600D01*
X250062000Y-161712600D02*
X250062000Y-155712600D01*
X226442000Y-152655529D02*
X226442000Y-153052600D01*
X208662000Y-152655529D02*
X208662000Y-153052600D01*
X228982000Y-161712600D02*
X229742000Y-161712600D01*
X246762000Y-155712600D02*
X246762000Y-161712600D01*
X200152000Y-153052600D02*
X200152000Y-155712600D01*
X168782000Y-161712600D02*
X168782000Y-155712600D01*
X168022000Y-152655529D02*
X168022000Y-153052600D01*
X213742000Y-161712600D02*
X214502000Y-161712600D01*
X206882000Y-152655529D02*
X206882000Y-153052600D01*
X217042000Y-161712600D02*
X217042000Y-155712600D01*
X244982000Y-161712600D02*
X244982000Y-155712600D01*
X252602000Y-161712600D02*
X252602000Y-155712600D01*
X175642000Y-152655529D02*
X175642000Y-153052600D01*
X241682000Y-152655529D02*
X241682000Y-153052600D01*
X190882000Y-152655529D02*
X190882000Y-153052600D01*
X208662000Y-161712600D02*
X209422000Y-161712600D01*
X175642000Y-161712600D02*
X176402000Y-161712600D01*
X246762000Y-152655529D02*
X246762000Y-153052600D01*
X213742000Y-155712600D02*
X213742000Y-161712600D01*
X247522000Y-152655529D02*
X247522000Y-153052600D01*
X236602000Y-155712600D02*
X236602000Y-161712600D01*
X163702000Y-161712600D02*
X163702000Y-155712600D01*
X186562000Y-152655529D02*
X186562000Y-153052600D01*
X188342000Y-152655529D02*
X188342000Y-153052600D01*
X236602000Y-161712600D02*
X237362000Y-161712600D01*
X165482000Y-161712600D02*
X166242000Y-161712600D01*
X163702000Y-152655529D02*
X163702000Y-153052600D01*
X155322000Y-161712600D02*
X156082000Y-161712600D01*
X217042000Y-152655529D02*
X217042000Y-153052600D01*
X171322000Y-152655529D02*
X171322000Y-153052600D01*
X173102000Y-161712600D02*
X173862000Y-161712600D01*
X183262000Y-155712600D02*
X183262000Y-161712600D01*
X249302000Y-152655529D02*
X249302000Y-153052600D01*
X174752000Y-153052600D02*
X174752000Y-155712600D01*
X221362000Y-155712600D02*
X221362000Y-161712600D01*
X181482000Y-152655529D02*
X181482000Y-153052600D01*
X154432000Y-150342600D02*
X154432000Y-151612600D01*
X239902000Y-152655529D02*
X239902000Y-153052600D01*
X191642000Y-161712600D02*
X191642000Y-155712600D01*
X242442000Y-161712600D02*
X242442000Y-155712600D01*
X206882000Y-161712600D02*
X206882000Y-155712600D01*
X155322000Y-155712600D02*
X155322000Y-161712600D01*
X250062000Y-152655529D02*
X250062000Y-153052600D01*
X173862000Y-161712600D02*
X173862000Y-155712600D01*
X173862000Y-152655529D02*
X173862000Y-153052600D01*
X179832000Y-153052600D02*
X179832000Y-155712600D01*
X157862000Y-152655529D02*
X157862000Y-153052600D01*
X176402000Y-152655529D02*
X176402000Y-153052600D01*
X198502000Y-155712600D02*
X198502000Y-161712600D01*
X248412000Y-153052600D02*
X248412000Y-155712600D01*
X244222000Y-152655529D02*
X244222000Y-153052600D01*
X212852000Y-153052600D02*
X212852000Y-155712600D01*
X243332000Y-153052600D02*
X243332000Y-155712600D01*
X229742000Y-161712600D02*
X229742000Y-155712600D01*
X185802000Y-161712600D02*
X186562000Y-161712600D01*
X155862000Y-155712600D02*
X155862000Y-161712600D01*
X186562000Y-161712600D02*
X186562000Y-155712600D01*
X213742000Y-152655529D02*
X213742000Y-153052600D01*
X185802000Y-155712600D02*
X185802000Y-161712600D01*
X231522000Y-161712600D02*
X232282000Y-161712600D01*
X165482000Y-155712600D02*
X165482000Y-161712600D01*
X223902000Y-152655529D02*
X223902000Y-153052600D01*
X188342000Y-155712600D02*
X188342000Y-161712600D01*
X226442000Y-155712600D02*
X226442000Y-161712600D01*
X160402000Y-161712600D02*
X161162000Y-161712600D01*
X170562000Y-155712600D02*
X170562000Y-161712600D01*
X196722000Y-152655529D02*
X196722000Y-153052600D01*
X215392000Y-153052600D02*
X215392000Y-155712600D01*
X162942000Y-155712600D02*
X162942000Y-161712600D01*
X234822000Y-152655529D02*
X234822000Y-153052600D01*
X239142000Y-161712600D02*
X239902000Y-161712600D01*
X187452000Y-153052600D02*
X187452000Y-155712600D01*
X162052000Y-153052600D02*
X162052000Y-155712600D01*
X168022000Y-155712600D02*
X168022000Y-161712600D01*
X203582000Y-161712600D02*
X204342000Y-161712600D01*
X247522000Y-161712600D02*
X247522000Y-155712600D01*
X201042000Y-161712600D02*
X201802000Y-161712600D01*
X240792000Y-153052600D02*
X240792000Y-155712600D01*
X184022000Y-161712600D02*
X184022000Y-155712600D01*
X204342000Y-152655529D02*
X204342000Y-153052600D01*
X183262000Y-161712600D02*
X184022000Y-161712600D01*
X234062000Y-152655529D02*
X234062000Y-153052600D01*
X181482000Y-161712600D02*
X181482000Y-155712600D01*
X197612000Y-153052600D02*
X197612000Y-155712600D01*
X227202000Y-152655529D02*
X227202000Y-153052600D01*
X217932000Y-153052600D02*
X217932000Y-155712600D01*
X154372000Y-153052600D02*
X253552000Y-153052600D01*
X176402000Y-161712600D02*
X176402000Y-155712600D01*
X224662000Y-161712600D02*
X224662000Y-155712600D01*
X155622000Y-155712600D02*
X155622000Y-161712600D01*
X220472000Y-153052600D02*
X220472000Y-155712600D01*
X198502000Y-152655529D02*
X198502000Y-153052600D01*
X253552000Y-153052600D02*
X253552000Y-155712600D01*
X227202000Y-161712600D02*
X227202000Y-155712600D01*
X204342000Y-161712600D02*
X204342000Y-155712600D01*
X156082000Y-152722600D02*
X156082000Y-153052600D01*
X208662000Y-155712600D02*
X208662000Y-161712600D01*
X165482000Y-152655529D02*
X165482000Y-153052600D01*
X223012000Y-153052600D02*
X223012000Y-155712600D01*
X241682000Y-155712600D02*
X241682000Y-161712600D01*
X166242000Y-152655529D02*
X166242000Y-153052600D01*
X180722000Y-161712600D02*
X181482000Y-161712600D01*
X155322000Y-152722600D02*
X155322000Y-153052600D01*
X161162000Y-161712600D02*
X161162000Y-155712600D01*
X155982000Y-155712600D02*
X155982000Y-161712600D01*
X201802000Y-152655529D02*
X201802000Y-153052600D01*
X238252000Y-153052600D02*
X238252000Y-155712600D01*
X199262000Y-152655529D02*
X199262000Y-153052600D01*
X211202000Y-155712600D02*
X211202000Y-161712600D01*
X224662000Y-152655529D02*
X224662000Y-153052600D01*
X250952000Y-153052600D02*
X250952000Y-155712600D01*
X154372000Y-155712600D02*
X154372000Y-153052600D01*
X175642000Y-155712600D02*
X175642000Y-161712600D01*
X157862000Y-161712600D02*
X158622000Y-161712600D01*
X222122000Y-161712600D02*
X222122000Y-155712600D01*
X216282000Y-161712600D02*
X217042000Y-161712600D01*
X158622000Y-152655529D02*
X158622000Y-153052600D01*
X223902000Y-155712600D02*
X223902000Y-161712600D01*
X218822000Y-155712600D02*
X218822000Y-161712600D01*
X184912000Y-153052600D02*
X184912000Y-155712600D01*
X155502000Y-155712600D02*
X155502000Y-161712600D01*
X178182000Y-152655529D02*
X178182000Y-153052600D01*
X189102000Y-161712600D02*
X189102000Y-155712600D01*
X189102000Y-152655529D02*
X189102000Y-153052600D01*
X156972000Y-153052600D02*
X156972000Y-155712600D01*
X178182000Y-161712600D02*
X178942000Y-161712600D01*
X216282000Y-152655529D02*
X216282000Y-153052600D01*
X214502000Y-161712600D02*
X214502000Y-155712600D01*
X211202000Y-152655529D02*
X211202000Y-153052600D01*
X233172000Y-153052600D02*
X233172000Y-155712600D01*
X237362000Y-152655529D02*
X237362000Y-153052600D01*
X251842000Y-161712600D02*
X252602000Y-161712600D01*
X155702000Y-150342600D02*
X154432000Y-150342600D01*
X210312000Y-153052600D02*
X210312000Y-155712600D01*
X244222000Y-161712600D02*
X244982000Y-161712600D01*
X196722000Y-161712600D02*
X196722000Y-155712600D01*
X158622000Y-161712600D02*
X158622000Y-155712600D01*
X228982000Y-155712600D02*
X228982000Y-161712600D01*
X195962000Y-152655529D02*
X195962000Y-153052600D01*
X164592000Y-153052600D02*
X164592000Y-155712600D01*
X234062000Y-161712600D02*
X234822000Y-161712600D01*
X219582000Y-152655529D02*
X219582000Y-153052600D01*
X192532000Y-153052600D02*
X192532000Y-155712600D01*
X242442000Y-152655529D02*
X242442000Y-153052600D01*
X180722000Y-152655529D02*
X180722000Y-153052600D01*
X160402000Y-155712600D02*
X160402000Y-161712600D01*
X160402000Y-152655529D02*
X160402000Y-153052600D01*
X235712000Y-153052600D02*
X235712000Y-155712600D01*
X211202000Y-161712600D02*
X211962000Y-161712600D01*
X188342000Y-161712600D02*
X189102000Y-161712600D01*
X251842000Y-155712600D02*
X251842000Y-161712600D01*
X222122000Y-152655529D02*
X222122000Y-153052600D01*
X206122000Y-152655529D02*
X206122000Y-153052600D01*
X170562000Y-161712600D02*
X171322000Y-161712600D01*
X228092000Y-153052600D02*
X228092000Y-155712600D01*
X225552000Y-153052600D02*
X225552000Y-155712600D01*
X249302000Y-155712600D02*
X249302000Y-161712600D01*
X156082000Y-161712600D02*
X156082000Y-155712600D01*
X207772000Y-153052600D02*
X207772000Y-155712600D01*
X193422000Y-155712600D02*
X193422000Y-161712600D01*
X206122000Y-155712600D02*
X206122000Y-161712600D01*
X244222000Y-155712600D02*
X244222000Y-161712600D01*
X229742000Y-152655529D02*
X229742000Y-153052600D01*
X173102000Y-152655529D02*
X173102000Y-153052600D01*
X162942000Y-161712600D02*
X163702000Y-161712600D01*
G04 #@! TO.C,J4*
X204342000Y-150115529D02*
X204342000Y-150512600D01*
X219582000Y-159172600D02*
X219582000Y-153172600D01*
X239142000Y-153172600D02*
X239142000Y-159172600D01*
X190882000Y-159172600D02*
X191642000Y-159172600D01*
X175642000Y-159172600D02*
X176402000Y-159172600D01*
X178182000Y-159172600D02*
X178942000Y-159172600D01*
X201042000Y-159172600D02*
X201802000Y-159172600D01*
X185802000Y-159172600D02*
X186562000Y-159172600D01*
X166242000Y-150115529D02*
X166242000Y-150512600D01*
X218822000Y-153172600D02*
X218822000Y-159172600D01*
X222122000Y-150115529D02*
X222122000Y-150512600D01*
X221362000Y-150115529D02*
X221362000Y-150512600D01*
X185802000Y-153172600D02*
X185802000Y-159172600D01*
X201042000Y-150115529D02*
X201042000Y-150512600D01*
X194182000Y-159172600D02*
X194182000Y-153172600D01*
X219582000Y-150115529D02*
X219582000Y-150512600D01*
X188342000Y-153172600D02*
X188342000Y-159172600D01*
X194182000Y-150115529D02*
X194182000Y-150512600D01*
X195072000Y-150512600D02*
X195072000Y-153172600D01*
X156972000Y-150512600D02*
X156972000Y-153172600D01*
X170562000Y-159172600D02*
X171322000Y-159172600D01*
X186562000Y-150115529D02*
X186562000Y-150512600D01*
X218822000Y-159172600D02*
X219582000Y-159172600D01*
X183262000Y-153172600D02*
X183262000Y-159172600D01*
X210312000Y-150512600D02*
X210312000Y-153172600D01*
X223902000Y-153172600D02*
X223902000Y-159172600D01*
X173862000Y-159172600D02*
X173862000Y-153172600D01*
X236602000Y-150115529D02*
X236602000Y-150512600D01*
X239902000Y-150115529D02*
X239902000Y-150512600D01*
X168782000Y-150115529D02*
X168782000Y-150512600D01*
X201802000Y-150115529D02*
X201802000Y-150512600D01*
X213742000Y-150115529D02*
X213742000Y-150512600D01*
X199262000Y-159172600D02*
X199262000Y-153172600D01*
X172212000Y-150512600D02*
X172212000Y-153172600D01*
X202692000Y-150512600D02*
X202692000Y-153172600D01*
X184022000Y-150115529D02*
X184022000Y-150512600D01*
X175642000Y-150115529D02*
X175642000Y-150512600D01*
X162942000Y-150115529D02*
X162942000Y-150512600D01*
X183262000Y-150115529D02*
X183262000Y-150512600D01*
X241682000Y-159172600D02*
X242442000Y-159172600D01*
X206122000Y-159172600D02*
X206882000Y-159172600D01*
X223902000Y-150115529D02*
X223902000Y-150512600D01*
X159512000Y-150512600D02*
X159512000Y-153172600D01*
X211202000Y-153172600D02*
X211202000Y-159172600D01*
X179832000Y-150512600D02*
X179832000Y-153172600D01*
X251842000Y-150115529D02*
X251842000Y-150512600D01*
X242442000Y-159172600D02*
X242442000Y-153172600D01*
X228092000Y-150512600D02*
X228092000Y-153172600D01*
X249302000Y-159172600D02*
X250062000Y-159172600D01*
X158622000Y-150115529D02*
X158622000Y-150512600D01*
X217042000Y-159172600D02*
X217042000Y-153172600D01*
X208662000Y-159172600D02*
X209422000Y-159172600D01*
X158622000Y-159172600D02*
X158622000Y-153172600D01*
X169672000Y-150512600D02*
X169672000Y-153172600D01*
X244982000Y-150115529D02*
X244982000Y-150512600D01*
X249302000Y-153172600D02*
X249302000Y-159172600D01*
X180722000Y-159172600D02*
X181482000Y-159172600D01*
X160402000Y-159172600D02*
X161162000Y-159172600D01*
X196722000Y-150115529D02*
X196722000Y-150512600D01*
X203582000Y-150115529D02*
X203582000Y-150512600D01*
X250062000Y-159172600D02*
X250062000Y-153172600D01*
X203582000Y-159172600D02*
X204342000Y-159172600D01*
X233172000Y-150512600D02*
X233172000Y-153172600D01*
X164592000Y-150512600D02*
X164592000Y-153172600D01*
X229742000Y-159172600D02*
X229742000Y-153172600D01*
X163702000Y-159172600D02*
X163702000Y-153172600D01*
X213742000Y-159172600D02*
X214502000Y-159172600D01*
X161162000Y-150115529D02*
X161162000Y-150512600D01*
X189102000Y-159172600D02*
X189102000Y-153172600D01*
X154432000Y-147802600D02*
X154432000Y-149072600D01*
X176402000Y-159172600D02*
X176402000Y-153172600D01*
X195962000Y-159172600D02*
X196722000Y-159172600D01*
X240792000Y-150512600D02*
X240792000Y-153172600D01*
X228982000Y-159172600D02*
X229742000Y-159172600D01*
X184022000Y-159172600D02*
X184022000Y-153172600D01*
X232282000Y-150115529D02*
X232282000Y-150512600D01*
X246762000Y-150115529D02*
X246762000Y-150512600D01*
X228982000Y-150115529D02*
X228982000Y-150512600D01*
X234062000Y-153172600D02*
X234062000Y-159172600D01*
X182372000Y-150512600D02*
X182372000Y-153172600D01*
X183262000Y-159172600D02*
X184022000Y-159172600D01*
X217042000Y-150115529D02*
X217042000Y-150512600D01*
X193422000Y-153172600D02*
X193422000Y-159172600D01*
X175642000Y-153172600D02*
X175642000Y-159172600D01*
X161162000Y-159172600D02*
X161162000Y-153172600D01*
X188342000Y-150115529D02*
X188342000Y-150512600D01*
X226442000Y-150115529D02*
X226442000Y-150512600D01*
X239142000Y-159172600D02*
X239902000Y-159172600D01*
X181482000Y-159172600D02*
X181482000Y-153172600D01*
X239142000Y-150115529D02*
X239142000Y-150512600D01*
X176402000Y-150115529D02*
X176402000Y-150512600D01*
X191642000Y-159172600D02*
X191642000Y-153172600D01*
X155702000Y-147802600D02*
X154432000Y-147802600D01*
X168022000Y-150115529D02*
X168022000Y-150512600D01*
X168022000Y-153172600D02*
X168022000Y-159172600D01*
X193422000Y-159172600D02*
X194182000Y-159172600D01*
X251842000Y-153172600D02*
X251842000Y-159172600D01*
X165482000Y-150115529D02*
X165482000Y-150512600D01*
X227202000Y-159172600D02*
X227202000Y-153172600D01*
X227202000Y-150115529D02*
X227202000Y-150512600D01*
X206122000Y-153172600D02*
X206122000Y-159172600D01*
X208662000Y-153172600D02*
X208662000Y-159172600D01*
X195962000Y-150115529D02*
X195962000Y-150512600D01*
X212852000Y-150512600D02*
X212852000Y-153172600D01*
X214502000Y-150115529D02*
X214502000Y-150512600D01*
X170562000Y-153172600D02*
X170562000Y-159172600D01*
X230632000Y-150512600D02*
X230632000Y-153172600D01*
X211202000Y-159172600D02*
X211962000Y-159172600D01*
X190882000Y-150115529D02*
X190882000Y-150512600D01*
X244222000Y-159172600D02*
X244982000Y-159172600D01*
X221362000Y-153172600D02*
X221362000Y-159172600D01*
X232282000Y-159172600D02*
X232282000Y-153172600D01*
X244982000Y-159172600D02*
X244982000Y-153172600D01*
X245872000Y-150512600D02*
X245872000Y-153172600D01*
X198502000Y-150115529D02*
X198502000Y-150512600D01*
X249302000Y-150115529D02*
X249302000Y-150512600D01*
X226442000Y-159172600D02*
X227202000Y-159172600D01*
X252602000Y-159172600D02*
X252602000Y-153172600D01*
X243332000Y-150512600D02*
X243332000Y-153172600D01*
X166242000Y-159172600D02*
X166242000Y-153172600D01*
X199262000Y-150115529D02*
X199262000Y-150512600D01*
X238252000Y-150512600D02*
X238252000Y-153172600D01*
X167132000Y-150512600D02*
X167132000Y-153172600D01*
X185802000Y-150115529D02*
X185802000Y-150512600D01*
X216282000Y-150115529D02*
X216282000Y-150512600D01*
X206882000Y-150115529D02*
X206882000Y-150512600D01*
X189102000Y-150115529D02*
X189102000Y-150512600D01*
X192532000Y-150512600D02*
X192532000Y-153172600D01*
X207772000Y-150512600D02*
X207772000Y-153172600D01*
X216282000Y-153172600D02*
X216282000Y-159172600D01*
X205232000Y-150512600D02*
X205232000Y-153172600D01*
X204342000Y-159172600D02*
X204342000Y-153172600D01*
X157862000Y-159172600D02*
X158622000Y-159172600D01*
X250952000Y-150512600D02*
X250952000Y-153172600D01*
X188342000Y-159172600D02*
X189102000Y-159172600D01*
X200152000Y-150512600D02*
X200152000Y-153172600D01*
X155862000Y-153172600D02*
X155862000Y-159172600D01*
X184912000Y-150512600D02*
X184912000Y-153172600D01*
X220472000Y-150512600D02*
X220472000Y-153172600D01*
X162052000Y-150512600D02*
X162052000Y-153172600D01*
X216282000Y-159172600D02*
X217042000Y-159172600D01*
X156082000Y-159172600D02*
X156082000Y-153172600D01*
X178942000Y-150115529D02*
X178942000Y-150512600D01*
X160402000Y-150115529D02*
X160402000Y-150512600D01*
X242442000Y-150115529D02*
X242442000Y-150512600D01*
X234822000Y-159172600D02*
X234822000Y-153172600D01*
X155382000Y-153172600D02*
X155382000Y-159172600D01*
X198502000Y-153172600D02*
X198502000Y-159172600D01*
X252602000Y-150115529D02*
X252602000Y-150512600D01*
X173102000Y-159172600D02*
X173862000Y-159172600D01*
X253552000Y-153172600D02*
X154372000Y-153172600D01*
X162942000Y-159172600D02*
X163702000Y-159172600D01*
X234062000Y-159172600D02*
X234822000Y-159172600D01*
X163702000Y-150115529D02*
X163702000Y-150512600D01*
X206882000Y-159172600D02*
X206882000Y-153172600D01*
X154372000Y-150512600D02*
X253552000Y-150512600D01*
X236602000Y-159172600D02*
X237362000Y-159172600D01*
X235712000Y-150512600D02*
X235712000Y-153172600D01*
X231522000Y-153172600D02*
X231522000Y-159172600D01*
X189992000Y-150512600D02*
X189992000Y-153172600D01*
X247522000Y-150115529D02*
X247522000Y-150512600D01*
X208662000Y-150115529D02*
X208662000Y-150512600D01*
X155622000Y-153172600D02*
X155622000Y-159172600D01*
X193422000Y-150115529D02*
X193422000Y-150512600D01*
X223012000Y-150512600D02*
X223012000Y-153172600D01*
X155982000Y-153172600D02*
X155982000Y-159172600D01*
X173102000Y-153172600D02*
X173102000Y-159172600D01*
X244222000Y-153172600D02*
X244222000Y-159172600D01*
X186562000Y-159172600D02*
X186562000Y-153172600D01*
X234822000Y-150115529D02*
X234822000Y-150512600D01*
X211962000Y-150115529D02*
X211962000Y-150512600D01*
X222122000Y-159172600D02*
X222122000Y-153172600D01*
X241682000Y-153172600D02*
X241682000Y-159172600D01*
X221362000Y-159172600D02*
X222122000Y-159172600D01*
X198502000Y-159172600D02*
X199262000Y-159172600D01*
X170562000Y-150115529D02*
X170562000Y-150512600D01*
X237362000Y-159172600D02*
X237362000Y-153172600D01*
X165482000Y-159172600D02*
X166242000Y-159172600D01*
X156082000Y-150182600D02*
X156082000Y-150512600D01*
X223902000Y-159172600D02*
X224662000Y-159172600D01*
X160402000Y-153172600D02*
X160402000Y-159172600D01*
X231522000Y-159172600D02*
X232282000Y-159172600D01*
X251842000Y-159172600D02*
X252602000Y-159172600D01*
X191642000Y-150115529D02*
X191642000Y-150512600D01*
X248412000Y-150512600D02*
X248412000Y-153172600D01*
X178942000Y-159172600D02*
X178942000Y-153172600D01*
X250062000Y-150115529D02*
X250062000Y-150512600D01*
X224662000Y-150115529D02*
X224662000Y-150512600D01*
X155502000Y-153172600D02*
X155502000Y-159172600D01*
X231522000Y-150115529D02*
X231522000Y-150512600D01*
X215392000Y-150512600D02*
X215392000Y-153172600D01*
X174752000Y-150512600D02*
X174752000Y-153172600D01*
X211202000Y-150115529D02*
X211202000Y-150512600D01*
X214502000Y-159172600D02*
X214502000Y-153172600D01*
X171322000Y-150115529D02*
X171322000Y-150512600D01*
X178182000Y-153172600D02*
X178182000Y-159172600D01*
X154372000Y-153172600D02*
X154372000Y-150512600D01*
X168022000Y-159172600D02*
X168782000Y-159172600D01*
X237362000Y-150115529D02*
X237362000Y-150512600D01*
X162942000Y-153172600D02*
X162942000Y-159172600D01*
X181482000Y-150115529D02*
X181482000Y-150512600D01*
X211962000Y-159172600D02*
X211962000Y-153172600D01*
X239902000Y-159172600D02*
X239902000Y-153172600D01*
X187452000Y-150512600D02*
X187452000Y-153172600D01*
X244222000Y-150115529D02*
X244222000Y-150512600D01*
X229742000Y-150115529D02*
X229742000Y-150512600D01*
X155322000Y-150182600D02*
X155322000Y-150512600D01*
X217932000Y-150512600D02*
X217932000Y-153172600D01*
X157862000Y-153172600D02*
X157862000Y-159172600D01*
X236602000Y-153172600D02*
X236602000Y-159172600D01*
X203582000Y-153172600D02*
X203582000Y-159172600D01*
X209422000Y-159172600D02*
X209422000Y-153172600D01*
X178182000Y-150115529D02*
X178182000Y-150512600D01*
X213742000Y-153172600D02*
X213742000Y-159172600D01*
X225552000Y-150512600D02*
X225552000Y-153172600D01*
X247522000Y-159172600D02*
X247522000Y-153172600D01*
X168782000Y-159172600D02*
X168782000Y-153172600D01*
X201042000Y-153172600D02*
X201042000Y-159172600D01*
X197612000Y-150512600D02*
X197612000Y-153172600D01*
X228982000Y-153172600D02*
X228982000Y-159172600D01*
X201802000Y-159172600D02*
X201802000Y-153172600D01*
X173102000Y-150115529D02*
X173102000Y-150512600D01*
X157862000Y-150115529D02*
X157862000Y-150512600D01*
X246762000Y-153172600D02*
X246762000Y-159172600D01*
X155322000Y-159172600D02*
X156082000Y-159172600D01*
X155742000Y-153172600D02*
X155742000Y-159172600D01*
X246762000Y-159172600D02*
X247522000Y-159172600D01*
X206122000Y-150115529D02*
X206122000Y-150512600D01*
X234062000Y-150115529D02*
X234062000Y-150512600D01*
X173862000Y-150115529D02*
X173862000Y-150512600D01*
X241682000Y-150115529D02*
X241682000Y-150512600D01*
X209422000Y-150115529D02*
X209422000Y-150512600D01*
X226442000Y-153172600D02*
X226442000Y-159172600D01*
X224662000Y-159172600D02*
X224662000Y-153172600D01*
X177292000Y-150512600D02*
X177292000Y-153172600D01*
X253552000Y-150512600D02*
X253552000Y-153172600D01*
X155322000Y-153172600D02*
X155322000Y-159172600D01*
X190882000Y-153172600D02*
X190882000Y-159172600D01*
X180722000Y-153172600D02*
X180722000Y-159172600D01*
X171322000Y-159172600D02*
X171322000Y-153172600D01*
X218822000Y-150115529D02*
X218822000Y-150512600D01*
X195962000Y-153172600D02*
X195962000Y-159172600D01*
X196722000Y-159172600D02*
X196722000Y-153172600D01*
X165482000Y-153172600D02*
X165482000Y-159172600D01*
X180722000Y-150115529D02*
X180722000Y-150512600D01*
G04 #@! TD*
M02*
