G04 #@! TF.GenerationSoftware,KiCad,Pcbnew,6.0.7-f9a2dced07~116~ubuntu22.04.1*
G04 #@! TF.CreationDate,2022-09-25T17:36:41-07:00*
G04 #@! TF.ProjectId,rc2014compat-pico-vga,72633230-3134-4636-9f6d-7061742d7069,rev?*
G04 #@! TF.SameCoordinates,Original*
G04 #@! TF.FileFunction,Soldermask,Bot*
G04 #@! TF.FilePolarity,Negative*
%FSLAX46Y46*%
G04 Gerber Fmt 4.6, Leading zero omitted, Abs format (unit mm)*
G04 Created by KiCad (PCBNEW 6.0.7-f9a2dced07~116~ubuntu22.04.1) date 2022-09-25 17:36:41*
%MOMM*%
%LPD*%
G01*
G04 APERTURE LIST*
%ADD10C,0.700000*%
%ADD11R,1.700000X1.700000*%
%ADD12O,1.700000X1.700000*%
%ADD13C,4.000000*%
%ADD14R,1.600000X1.600000*%
%ADD15C,1.600000*%
%ADD16C,0.650000*%
%ADD17O,1.600000X1.000000*%
%ADD18O,2.100000X0.900000*%
%ADD19C,1.000000*%
G04 APERTURE END LIST*
D10*
G04 #@! TO.C,SW1*
X181362000Y-104910000D03*
X183062000Y-104910000D03*
G04 #@! TD*
G04 #@! TO.C,SW4*
X233940000Y-104910000D03*
X235640000Y-104910000D03*
G04 #@! TD*
G04 #@! TO.C,SW6*
X171362000Y-104910000D03*
X173062000Y-104910000D03*
G04 #@! TD*
D11*
G04 #@! TO.C,J1*
X216149300Y-114032800D03*
D12*
X213609300Y-114032800D03*
X211069300Y-114032800D03*
X208529300Y-114032800D03*
X205989300Y-114032800D03*
X203449300Y-114032800D03*
X200909300Y-114032800D03*
X198369300Y-114032800D03*
X195829300Y-114032800D03*
X193289300Y-114032800D03*
G04 #@! TD*
D13*
G04 #@! TO.C,J2*
X247605669Y-112737000D03*
X247605669Y-137737000D03*
D14*
X245555669Y-120922000D03*
D15*
X245555669Y-123212000D03*
X245555669Y-125502000D03*
X245555669Y-127792000D03*
X245555669Y-130082000D03*
X247535669Y-119777000D03*
X247535669Y-122067000D03*
X247535669Y-124357000D03*
X247535669Y-126647000D03*
X247535669Y-128937000D03*
X249515669Y-120922000D03*
X249515669Y-123212000D03*
X249515669Y-125502000D03*
X249515669Y-127792000D03*
X249515669Y-130082000D03*
G04 #@! TD*
D10*
G04 #@! TO.C,SW2*
X215640000Y-104910000D03*
X213940000Y-104910000D03*
G04 #@! TD*
G04 #@! TO.C,SW3*
X223940000Y-104910000D03*
X225640000Y-104910000D03*
G04 #@! TD*
D16*
G04 #@! TO.C,J3*
X158782000Y-126334000D03*
X158782000Y-120554000D03*
D17*
X155102000Y-127764000D03*
D18*
X159282000Y-119124000D03*
X159282000Y-127764000D03*
D17*
X155102000Y-119124000D03*
G04 #@! TD*
D11*
G04 #@! TO.C,J5*
X155702000Y-151612600D03*
D12*
X158242000Y-151612600D03*
X160782000Y-151612600D03*
X163322000Y-151612600D03*
X165862000Y-151612600D03*
X168402000Y-151612600D03*
X170942000Y-151612600D03*
X173482000Y-151612600D03*
X176022000Y-151612600D03*
X178562000Y-151612600D03*
X181102000Y-151612600D03*
X183642000Y-151612600D03*
X186182000Y-151612600D03*
X188722000Y-151612600D03*
X191262000Y-151612600D03*
X193802000Y-151612600D03*
X196342000Y-151612600D03*
X198882000Y-151612600D03*
X201422000Y-151612600D03*
X203962000Y-151612600D03*
X206502000Y-151612600D03*
X209042000Y-151612600D03*
X211582000Y-151612600D03*
X214122000Y-151612600D03*
X216662000Y-151612600D03*
X219202000Y-151612600D03*
X221742000Y-151612600D03*
X224282000Y-151612600D03*
X226822000Y-151612600D03*
X229362000Y-151612600D03*
X231902000Y-151612600D03*
X234442000Y-151612600D03*
X236982000Y-151612600D03*
X239522000Y-151612600D03*
X242062000Y-151612600D03*
X244602000Y-151612600D03*
X247142000Y-151612600D03*
X249682000Y-151612600D03*
D19*
X252222000Y-151612600D03*
G04 #@! TD*
D11*
G04 #@! TO.C,J4*
X155702000Y-149072600D03*
D12*
X158242000Y-149072600D03*
X160782000Y-149072600D03*
X163322000Y-149072600D03*
X165862000Y-149072600D03*
X168402000Y-149072600D03*
X170942000Y-149072600D03*
X173482000Y-149072600D03*
X176022000Y-149072600D03*
X178562000Y-149072600D03*
X181102000Y-149072600D03*
X183642000Y-149072600D03*
X186182000Y-149072600D03*
X188722000Y-149072600D03*
X191262000Y-149072600D03*
X193802000Y-149072600D03*
X196342000Y-149072600D03*
X198882000Y-149072600D03*
X201422000Y-149072600D03*
X203962000Y-149072600D03*
X206502000Y-149072600D03*
X209042000Y-149072600D03*
X211582000Y-149072600D03*
X214122000Y-149072600D03*
X216662000Y-149072600D03*
X219202000Y-149072600D03*
X221742000Y-149072600D03*
X224282000Y-149072600D03*
X226822000Y-149072600D03*
X229362000Y-149072600D03*
X231902000Y-149072600D03*
X234442000Y-149072600D03*
X236982000Y-149072600D03*
X239522000Y-149072600D03*
X242062000Y-149072600D03*
X244602000Y-149072600D03*
X247142000Y-149072600D03*
X249682000Y-149072600D03*
D19*
X252222000Y-149072600D03*
G04 #@! TD*
M02*
