G04 #@! TF.GenerationSoftware,KiCad,Pcbnew,6.0.7-f9a2dced07~116~ubuntu22.04.1*
G04 #@! TF.CreationDate,2022-09-25T15:05:21-07:00*
G04 #@! TF.ProjectId,rc2014compat-pico-vga,72633230-3134-4636-9f6d-7061742d7069,rev?*
G04 #@! TF.SameCoordinates,Original*
G04 #@! TF.FileFunction,Legend,Bot*
G04 #@! TF.FilePolarity,Positive*
%FSLAX46Y46*%
G04 Gerber Fmt 4.6, Leading zero omitted, Abs format (unit mm)*
G04 Created by KiCad (PCBNEW 6.0.7-f9a2dced07~116~ubuntu22.04.1) date 2022-09-25 15:05:21*
%MOMM*%
%LPD*%
G01*
G04 APERTURE LIST*
%ADD10C,0.150000*%
%ADD11C,0.120000*%
G04 APERTURE END LIST*
D10*
G04 #@! TO.C,J5*
X152884380Y-155664266D02*
X153598666Y-155664266D01*
X153741523Y-155616647D01*
X153836761Y-155521409D01*
X153884380Y-155378552D01*
X153884380Y-155283314D01*
X152884380Y-156616647D02*
X152884380Y-156140457D01*
X153360571Y-156092838D01*
X153312952Y-156140457D01*
X153265333Y-156235695D01*
X153265333Y-156473790D01*
X153312952Y-156569028D01*
X153360571Y-156616647D01*
X153455809Y-156664266D01*
X153693904Y-156664266D01*
X153789142Y-156616647D01*
X153836761Y-156569028D01*
X153884380Y-156473790D01*
X153884380Y-156235695D01*
X153836761Y-156140457D01*
X153789142Y-156092838D01*
G04 #@! TO.C,J4*
X152884380Y-153124266D02*
X153598666Y-153124266D01*
X153741523Y-153076647D01*
X153836761Y-152981409D01*
X153884380Y-152838552D01*
X153884380Y-152743314D01*
X153217714Y-154029028D02*
X153884380Y-154029028D01*
X152836761Y-153790933D02*
X153551047Y-153552838D01*
X153551047Y-154171885D01*
D11*
G04 #@! TO.C,J5*
X162942000Y-152655529D02*
X162942000Y-153052600D01*
X219582000Y-161712600D02*
X219582000Y-155712600D01*
X201042000Y-155712600D02*
X201042000Y-161712600D01*
X193422000Y-152655529D02*
X193422000Y-153052600D01*
X221362000Y-161712600D02*
X222122000Y-161712600D01*
X211962000Y-161712600D02*
X211962000Y-155712600D01*
X241682000Y-161712600D02*
X242442000Y-161712600D01*
X195962000Y-155712600D02*
X195962000Y-161712600D01*
X178942000Y-161712600D02*
X178942000Y-155712600D01*
X169672000Y-153052600D02*
X169672000Y-155712600D01*
X214502000Y-152655529D02*
X214502000Y-153052600D01*
X173102000Y-155712600D02*
X173102000Y-161712600D01*
X209422000Y-152655529D02*
X209422000Y-153052600D01*
X178942000Y-152655529D02*
X178942000Y-153052600D01*
X236602000Y-152655529D02*
X236602000Y-153052600D01*
X252602000Y-152655529D02*
X252602000Y-153052600D01*
X221362000Y-152655529D02*
X221362000Y-153052600D01*
X191642000Y-152655529D02*
X191642000Y-153052600D01*
X190882000Y-161712600D02*
X191642000Y-161712600D01*
X180722000Y-155712600D02*
X180722000Y-161712600D01*
X194182000Y-152655529D02*
X194182000Y-153052600D01*
X168782000Y-152655529D02*
X168782000Y-153052600D01*
X253552000Y-155712600D02*
X154372000Y-155712600D01*
X155742000Y-155712600D02*
X155742000Y-161712600D01*
X244982000Y-152655529D02*
X244982000Y-153052600D01*
X216282000Y-155712600D02*
X216282000Y-161712600D01*
X201042000Y-152655529D02*
X201042000Y-153052600D01*
X195962000Y-161712600D02*
X196722000Y-161712600D01*
X166242000Y-161712600D02*
X166242000Y-155712600D01*
X171322000Y-161712600D02*
X171322000Y-155712600D01*
X251842000Y-152655529D02*
X251842000Y-153052600D01*
X231522000Y-155712600D02*
X231522000Y-161712600D01*
X201802000Y-161712600D02*
X201802000Y-155712600D01*
X157862000Y-155712600D02*
X157862000Y-161712600D01*
X228982000Y-152655529D02*
X228982000Y-153052600D01*
X155382000Y-155712600D02*
X155382000Y-161712600D01*
X203582000Y-152655529D02*
X203582000Y-153052600D01*
X230632000Y-153052600D02*
X230632000Y-155712600D01*
X189992000Y-153052600D02*
X189992000Y-155712600D01*
X245872000Y-153052600D02*
X245872000Y-155712600D01*
X239142000Y-152655529D02*
X239142000Y-153052600D01*
X183262000Y-152655529D02*
X183262000Y-153052600D01*
X239142000Y-155712600D02*
X239142000Y-161712600D01*
X249302000Y-161712600D02*
X250062000Y-161712600D01*
X231522000Y-152655529D02*
X231522000Y-153052600D01*
X184022000Y-152655529D02*
X184022000Y-153052600D01*
X159512000Y-153052600D02*
X159512000Y-155712600D01*
X170562000Y-152655529D02*
X170562000Y-153052600D01*
X198502000Y-161712600D02*
X199262000Y-161712600D01*
X218822000Y-161712600D02*
X219582000Y-161712600D01*
X177292000Y-153052600D02*
X177292000Y-155712600D01*
X190882000Y-155712600D02*
X190882000Y-161712600D01*
X211962000Y-152655529D02*
X211962000Y-153052600D01*
X206122000Y-161712600D02*
X206882000Y-161712600D01*
X237362000Y-161712600D02*
X237362000Y-155712600D01*
X161162000Y-152655529D02*
X161162000Y-153052600D01*
X168022000Y-161712600D02*
X168782000Y-161712600D01*
X199262000Y-161712600D02*
X199262000Y-155712600D01*
X167132000Y-153052600D02*
X167132000Y-155712600D01*
X234822000Y-161712600D02*
X234822000Y-155712600D01*
X205232000Y-153052600D02*
X205232000Y-155712600D01*
X246762000Y-161712600D02*
X247522000Y-161712600D01*
X239902000Y-161712600D02*
X239902000Y-155712600D01*
X182372000Y-153052600D02*
X182372000Y-155712600D01*
X226442000Y-161712600D02*
X227202000Y-161712600D01*
X234062000Y-155712600D02*
X234062000Y-161712600D01*
X185802000Y-152655529D02*
X185802000Y-153052600D01*
X209422000Y-161712600D02*
X209422000Y-155712600D01*
X218822000Y-152655529D02*
X218822000Y-153052600D01*
X223902000Y-161712600D02*
X224662000Y-161712600D01*
X232282000Y-161712600D02*
X232282000Y-155712600D01*
X232282000Y-152655529D02*
X232282000Y-153052600D01*
X172212000Y-153052600D02*
X172212000Y-155712600D01*
X194182000Y-161712600D02*
X194182000Y-155712600D01*
X195072000Y-153052600D02*
X195072000Y-155712600D01*
X203582000Y-155712600D02*
X203582000Y-161712600D01*
X193422000Y-161712600D02*
X194182000Y-161712600D01*
X202692000Y-153052600D02*
X202692000Y-155712600D01*
X178182000Y-155712600D02*
X178182000Y-161712600D01*
X250062000Y-161712600D02*
X250062000Y-155712600D01*
X226442000Y-152655529D02*
X226442000Y-153052600D01*
X208662000Y-152655529D02*
X208662000Y-153052600D01*
X228982000Y-161712600D02*
X229742000Y-161712600D01*
X246762000Y-155712600D02*
X246762000Y-161712600D01*
X200152000Y-153052600D02*
X200152000Y-155712600D01*
X168782000Y-161712600D02*
X168782000Y-155712600D01*
X168022000Y-152655529D02*
X168022000Y-153052600D01*
X213742000Y-161712600D02*
X214502000Y-161712600D01*
X206882000Y-152655529D02*
X206882000Y-153052600D01*
X217042000Y-161712600D02*
X217042000Y-155712600D01*
X244982000Y-161712600D02*
X244982000Y-155712600D01*
X252602000Y-161712600D02*
X252602000Y-155712600D01*
X175642000Y-152655529D02*
X175642000Y-153052600D01*
X241682000Y-152655529D02*
X241682000Y-153052600D01*
X190882000Y-152655529D02*
X190882000Y-153052600D01*
X208662000Y-161712600D02*
X209422000Y-161712600D01*
X175642000Y-161712600D02*
X176402000Y-161712600D01*
X246762000Y-152655529D02*
X246762000Y-153052600D01*
X213742000Y-155712600D02*
X213742000Y-161712600D01*
X247522000Y-152655529D02*
X247522000Y-153052600D01*
X236602000Y-155712600D02*
X236602000Y-161712600D01*
X163702000Y-161712600D02*
X163702000Y-155712600D01*
X186562000Y-152655529D02*
X186562000Y-153052600D01*
X188342000Y-152655529D02*
X188342000Y-153052600D01*
X236602000Y-161712600D02*
X237362000Y-161712600D01*
X165482000Y-161712600D02*
X166242000Y-161712600D01*
X163702000Y-152655529D02*
X163702000Y-153052600D01*
X155322000Y-161712600D02*
X156082000Y-161712600D01*
X217042000Y-152655529D02*
X217042000Y-153052600D01*
X171322000Y-152655529D02*
X171322000Y-153052600D01*
X173102000Y-161712600D02*
X173862000Y-161712600D01*
X183262000Y-155712600D02*
X183262000Y-161712600D01*
X249302000Y-152655529D02*
X249302000Y-153052600D01*
X174752000Y-153052600D02*
X174752000Y-155712600D01*
X221362000Y-155712600D02*
X221362000Y-161712600D01*
X181482000Y-152655529D02*
X181482000Y-153052600D01*
X154432000Y-150342600D02*
X154432000Y-151612600D01*
X239902000Y-152655529D02*
X239902000Y-153052600D01*
X191642000Y-161712600D02*
X191642000Y-155712600D01*
X242442000Y-161712600D02*
X242442000Y-155712600D01*
X206882000Y-161712600D02*
X206882000Y-155712600D01*
X155322000Y-155712600D02*
X155322000Y-161712600D01*
X250062000Y-152655529D02*
X250062000Y-153052600D01*
X173862000Y-161712600D02*
X173862000Y-155712600D01*
X173862000Y-152655529D02*
X173862000Y-153052600D01*
X179832000Y-153052600D02*
X179832000Y-155712600D01*
X157862000Y-152655529D02*
X157862000Y-153052600D01*
X176402000Y-152655529D02*
X176402000Y-153052600D01*
X198502000Y-155712600D02*
X198502000Y-161712600D01*
X248412000Y-153052600D02*
X248412000Y-155712600D01*
X244222000Y-152655529D02*
X244222000Y-153052600D01*
X212852000Y-153052600D02*
X212852000Y-155712600D01*
X243332000Y-153052600D02*
X243332000Y-155712600D01*
X229742000Y-161712600D02*
X229742000Y-155712600D01*
X185802000Y-161712600D02*
X186562000Y-161712600D01*
X155862000Y-155712600D02*
X155862000Y-161712600D01*
X186562000Y-161712600D02*
X186562000Y-155712600D01*
X213742000Y-152655529D02*
X213742000Y-153052600D01*
X185802000Y-155712600D02*
X185802000Y-161712600D01*
X231522000Y-161712600D02*
X232282000Y-161712600D01*
X165482000Y-155712600D02*
X165482000Y-161712600D01*
X223902000Y-152655529D02*
X223902000Y-153052600D01*
X188342000Y-155712600D02*
X188342000Y-161712600D01*
X226442000Y-155712600D02*
X226442000Y-161712600D01*
X160402000Y-161712600D02*
X161162000Y-161712600D01*
X170562000Y-155712600D02*
X170562000Y-161712600D01*
X196722000Y-152655529D02*
X196722000Y-153052600D01*
X215392000Y-153052600D02*
X215392000Y-155712600D01*
X162942000Y-155712600D02*
X162942000Y-161712600D01*
X234822000Y-152655529D02*
X234822000Y-153052600D01*
X239142000Y-161712600D02*
X239902000Y-161712600D01*
X187452000Y-153052600D02*
X187452000Y-155712600D01*
X162052000Y-153052600D02*
X162052000Y-155712600D01*
X168022000Y-155712600D02*
X168022000Y-161712600D01*
X203582000Y-161712600D02*
X204342000Y-161712600D01*
X247522000Y-161712600D02*
X247522000Y-155712600D01*
X201042000Y-161712600D02*
X201802000Y-161712600D01*
X240792000Y-153052600D02*
X240792000Y-155712600D01*
X184022000Y-161712600D02*
X184022000Y-155712600D01*
X204342000Y-152655529D02*
X204342000Y-153052600D01*
X183262000Y-161712600D02*
X184022000Y-161712600D01*
X234062000Y-152655529D02*
X234062000Y-153052600D01*
X181482000Y-161712600D02*
X181482000Y-155712600D01*
X197612000Y-153052600D02*
X197612000Y-155712600D01*
X227202000Y-152655529D02*
X227202000Y-153052600D01*
X217932000Y-153052600D02*
X217932000Y-155712600D01*
X154372000Y-153052600D02*
X253552000Y-153052600D01*
X176402000Y-161712600D02*
X176402000Y-155712600D01*
X224662000Y-161712600D02*
X224662000Y-155712600D01*
X155622000Y-155712600D02*
X155622000Y-161712600D01*
X220472000Y-153052600D02*
X220472000Y-155712600D01*
X198502000Y-152655529D02*
X198502000Y-153052600D01*
X253552000Y-153052600D02*
X253552000Y-155712600D01*
X227202000Y-161712600D02*
X227202000Y-155712600D01*
X204342000Y-161712600D02*
X204342000Y-155712600D01*
X156082000Y-152722600D02*
X156082000Y-153052600D01*
X208662000Y-155712600D02*
X208662000Y-161712600D01*
X165482000Y-152655529D02*
X165482000Y-153052600D01*
X223012000Y-153052600D02*
X223012000Y-155712600D01*
X241682000Y-155712600D02*
X241682000Y-161712600D01*
X166242000Y-152655529D02*
X166242000Y-153052600D01*
X180722000Y-161712600D02*
X181482000Y-161712600D01*
X155322000Y-152722600D02*
X155322000Y-153052600D01*
X161162000Y-161712600D02*
X161162000Y-155712600D01*
X155982000Y-155712600D02*
X155982000Y-161712600D01*
X201802000Y-152655529D02*
X201802000Y-153052600D01*
X238252000Y-153052600D02*
X238252000Y-155712600D01*
X199262000Y-152655529D02*
X199262000Y-153052600D01*
X211202000Y-155712600D02*
X211202000Y-161712600D01*
X224662000Y-152655529D02*
X224662000Y-153052600D01*
X250952000Y-153052600D02*
X250952000Y-155712600D01*
X154372000Y-155712600D02*
X154372000Y-153052600D01*
X175642000Y-155712600D02*
X175642000Y-161712600D01*
X157862000Y-161712600D02*
X158622000Y-161712600D01*
X222122000Y-161712600D02*
X222122000Y-155712600D01*
X216282000Y-161712600D02*
X217042000Y-161712600D01*
X158622000Y-152655529D02*
X158622000Y-153052600D01*
X223902000Y-155712600D02*
X223902000Y-161712600D01*
X218822000Y-155712600D02*
X218822000Y-161712600D01*
X184912000Y-153052600D02*
X184912000Y-155712600D01*
X155502000Y-155712600D02*
X155502000Y-161712600D01*
X178182000Y-152655529D02*
X178182000Y-153052600D01*
X189102000Y-161712600D02*
X189102000Y-155712600D01*
X189102000Y-152655529D02*
X189102000Y-153052600D01*
X156972000Y-153052600D02*
X156972000Y-155712600D01*
X178182000Y-161712600D02*
X178942000Y-161712600D01*
X216282000Y-152655529D02*
X216282000Y-153052600D01*
X214502000Y-161712600D02*
X214502000Y-155712600D01*
X211202000Y-152655529D02*
X211202000Y-153052600D01*
X233172000Y-153052600D02*
X233172000Y-155712600D01*
X237362000Y-152655529D02*
X237362000Y-153052600D01*
X251842000Y-161712600D02*
X252602000Y-161712600D01*
X155702000Y-150342600D02*
X154432000Y-150342600D01*
X210312000Y-153052600D02*
X210312000Y-155712600D01*
X244222000Y-161712600D02*
X244982000Y-161712600D01*
X196722000Y-161712600D02*
X196722000Y-155712600D01*
X158622000Y-161712600D02*
X158622000Y-155712600D01*
X228982000Y-155712600D02*
X228982000Y-161712600D01*
X195962000Y-152655529D02*
X195962000Y-153052600D01*
X164592000Y-153052600D02*
X164592000Y-155712600D01*
X234062000Y-161712600D02*
X234822000Y-161712600D01*
X219582000Y-152655529D02*
X219582000Y-153052600D01*
X192532000Y-153052600D02*
X192532000Y-155712600D01*
X242442000Y-152655529D02*
X242442000Y-153052600D01*
X180722000Y-152655529D02*
X180722000Y-153052600D01*
X160402000Y-155712600D02*
X160402000Y-161712600D01*
X160402000Y-152655529D02*
X160402000Y-153052600D01*
X235712000Y-153052600D02*
X235712000Y-155712600D01*
X211202000Y-161712600D02*
X211962000Y-161712600D01*
X188342000Y-161712600D02*
X189102000Y-161712600D01*
X251842000Y-155712600D02*
X251842000Y-161712600D01*
X222122000Y-152655529D02*
X222122000Y-153052600D01*
X206122000Y-152655529D02*
X206122000Y-153052600D01*
X170562000Y-161712600D02*
X171322000Y-161712600D01*
X228092000Y-153052600D02*
X228092000Y-155712600D01*
X225552000Y-153052600D02*
X225552000Y-155712600D01*
X249302000Y-155712600D02*
X249302000Y-161712600D01*
X156082000Y-161712600D02*
X156082000Y-155712600D01*
X207772000Y-153052600D02*
X207772000Y-155712600D01*
X193422000Y-155712600D02*
X193422000Y-161712600D01*
X206122000Y-155712600D02*
X206122000Y-161712600D01*
X244222000Y-155712600D02*
X244222000Y-161712600D01*
X229742000Y-152655529D02*
X229742000Y-153052600D01*
X173102000Y-152655529D02*
X173102000Y-153052600D01*
X162942000Y-161712600D02*
X163702000Y-161712600D01*
G04 #@! TO.C,J4*
X204342000Y-150115529D02*
X204342000Y-150512600D01*
X219582000Y-159172600D02*
X219582000Y-153172600D01*
X239142000Y-153172600D02*
X239142000Y-159172600D01*
X190882000Y-159172600D02*
X191642000Y-159172600D01*
X175642000Y-159172600D02*
X176402000Y-159172600D01*
X178182000Y-159172600D02*
X178942000Y-159172600D01*
X201042000Y-159172600D02*
X201802000Y-159172600D01*
X185802000Y-159172600D02*
X186562000Y-159172600D01*
X166242000Y-150115529D02*
X166242000Y-150512600D01*
X218822000Y-153172600D02*
X218822000Y-159172600D01*
X222122000Y-150115529D02*
X222122000Y-150512600D01*
X221362000Y-150115529D02*
X221362000Y-150512600D01*
X185802000Y-153172600D02*
X185802000Y-159172600D01*
X201042000Y-150115529D02*
X201042000Y-150512600D01*
X194182000Y-159172600D02*
X194182000Y-153172600D01*
X219582000Y-150115529D02*
X219582000Y-150512600D01*
X188342000Y-153172600D02*
X188342000Y-159172600D01*
X194182000Y-150115529D02*
X194182000Y-150512600D01*
X195072000Y-150512600D02*
X195072000Y-153172600D01*
X156972000Y-150512600D02*
X156972000Y-153172600D01*
X170562000Y-159172600D02*
X171322000Y-159172600D01*
X186562000Y-150115529D02*
X186562000Y-150512600D01*
X218822000Y-159172600D02*
X219582000Y-159172600D01*
X183262000Y-153172600D02*
X183262000Y-159172600D01*
X210312000Y-150512600D02*
X210312000Y-153172600D01*
X223902000Y-153172600D02*
X223902000Y-159172600D01*
X173862000Y-159172600D02*
X173862000Y-153172600D01*
X236602000Y-150115529D02*
X236602000Y-150512600D01*
X239902000Y-150115529D02*
X239902000Y-150512600D01*
X168782000Y-150115529D02*
X168782000Y-150512600D01*
X201802000Y-150115529D02*
X201802000Y-150512600D01*
X213742000Y-150115529D02*
X213742000Y-150512600D01*
X199262000Y-159172600D02*
X199262000Y-153172600D01*
X172212000Y-150512600D02*
X172212000Y-153172600D01*
X202692000Y-150512600D02*
X202692000Y-153172600D01*
X184022000Y-150115529D02*
X184022000Y-150512600D01*
X175642000Y-150115529D02*
X175642000Y-150512600D01*
X162942000Y-150115529D02*
X162942000Y-150512600D01*
X183262000Y-150115529D02*
X183262000Y-150512600D01*
X241682000Y-159172600D02*
X242442000Y-159172600D01*
X206122000Y-159172600D02*
X206882000Y-159172600D01*
X223902000Y-150115529D02*
X223902000Y-150512600D01*
X159512000Y-150512600D02*
X159512000Y-153172600D01*
X211202000Y-153172600D02*
X211202000Y-159172600D01*
X179832000Y-150512600D02*
X179832000Y-153172600D01*
X251842000Y-150115529D02*
X251842000Y-150512600D01*
X242442000Y-159172600D02*
X242442000Y-153172600D01*
X228092000Y-150512600D02*
X228092000Y-153172600D01*
X249302000Y-159172600D02*
X250062000Y-159172600D01*
X158622000Y-150115529D02*
X158622000Y-150512600D01*
X217042000Y-159172600D02*
X217042000Y-153172600D01*
X208662000Y-159172600D02*
X209422000Y-159172600D01*
X158622000Y-159172600D02*
X158622000Y-153172600D01*
X169672000Y-150512600D02*
X169672000Y-153172600D01*
X244982000Y-150115529D02*
X244982000Y-150512600D01*
X249302000Y-153172600D02*
X249302000Y-159172600D01*
X180722000Y-159172600D02*
X181482000Y-159172600D01*
X160402000Y-159172600D02*
X161162000Y-159172600D01*
X196722000Y-150115529D02*
X196722000Y-150512600D01*
X203582000Y-150115529D02*
X203582000Y-150512600D01*
X250062000Y-159172600D02*
X250062000Y-153172600D01*
X203582000Y-159172600D02*
X204342000Y-159172600D01*
X233172000Y-150512600D02*
X233172000Y-153172600D01*
X164592000Y-150512600D02*
X164592000Y-153172600D01*
X229742000Y-159172600D02*
X229742000Y-153172600D01*
X163702000Y-159172600D02*
X163702000Y-153172600D01*
X213742000Y-159172600D02*
X214502000Y-159172600D01*
X161162000Y-150115529D02*
X161162000Y-150512600D01*
X189102000Y-159172600D02*
X189102000Y-153172600D01*
X154432000Y-147802600D02*
X154432000Y-149072600D01*
X176402000Y-159172600D02*
X176402000Y-153172600D01*
X195962000Y-159172600D02*
X196722000Y-159172600D01*
X240792000Y-150512600D02*
X240792000Y-153172600D01*
X228982000Y-159172600D02*
X229742000Y-159172600D01*
X184022000Y-159172600D02*
X184022000Y-153172600D01*
X232282000Y-150115529D02*
X232282000Y-150512600D01*
X246762000Y-150115529D02*
X246762000Y-150512600D01*
X228982000Y-150115529D02*
X228982000Y-150512600D01*
X234062000Y-153172600D02*
X234062000Y-159172600D01*
X182372000Y-150512600D02*
X182372000Y-153172600D01*
X183262000Y-159172600D02*
X184022000Y-159172600D01*
X217042000Y-150115529D02*
X217042000Y-150512600D01*
X193422000Y-153172600D02*
X193422000Y-159172600D01*
X175642000Y-153172600D02*
X175642000Y-159172600D01*
X161162000Y-159172600D02*
X161162000Y-153172600D01*
X188342000Y-150115529D02*
X188342000Y-150512600D01*
X226442000Y-150115529D02*
X226442000Y-150512600D01*
X239142000Y-159172600D02*
X239902000Y-159172600D01*
X181482000Y-159172600D02*
X181482000Y-153172600D01*
X239142000Y-150115529D02*
X239142000Y-150512600D01*
X176402000Y-150115529D02*
X176402000Y-150512600D01*
X191642000Y-159172600D02*
X191642000Y-153172600D01*
X155702000Y-147802600D02*
X154432000Y-147802600D01*
X168022000Y-150115529D02*
X168022000Y-150512600D01*
X168022000Y-153172600D02*
X168022000Y-159172600D01*
X193422000Y-159172600D02*
X194182000Y-159172600D01*
X251842000Y-153172600D02*
X251842000Y-159172600D01*
X165482000Y-150115529D02*
X165482000Y-150512600D01*
X227202000Y-159172600D02*
X227202000Y-153172600D01*
X227202000Y-150115529D02*
X227202000Y-150512600D01*
X206122000Y-153172600D02*
X206122000Y-159172600D01*
X208662000Y-153172600D02*
X208662000Y-159172600D01*
X195962000Y-150115529D02*
X195962000Y-150512600D01*
X212852000Y-150512600D02*
X212852000Y-153172600D01*
X214502000Y-150115529D02*
X214502000Y-150512600D01*
X170562000Y-153172600D02*
X170562000Y-159172600D01*
X230632000Y-150512600D02*
X230632000Y-153172600D01*
X211202000Y-159172600D02*
X211962000Y-159172600D01*
X190882000Y-150115529D02*
X190882000Y-150512600D01*
X244222000Y-159172600D02*
X244982000Y-159172600D01*
X221362000Y-153172600D02*
X221362000Y-159172600D01*
X232282000Y-159172600D02*
X232282000Y-153172600D01*
X244982000Y-159172600D02*
X244982000Y-153172600D01*
X245872000Y-150512600D02*
X245872000Y-153172600D01*
X198502000Y-150115529D02*
X198502000Y-150512600D01*
X249302000Y-150115529D02*
X249302000Y-150512600D01*
X226442000Y-159172600D02*
X227202000Y-159172600D01*
X252602000Y-159172600D02*
X252602000Y-153172600D01*
X243332000Y-150512600D02*
X243332000Y-153172600D01*
X166242000Y-159172600D02*
X166242000Y-153172600D01*
X199262000Y-150115529D02*
X199262000Y-150512600D01*
X238252000Y-150512600D02*
X238252000Y-153172600D01*
X167132000Y-150512600D02*
X167132000Y-153172600D01*
X185802000Y-150115529D02*
X185802000Y-150512600D01*
X216282000Y-150115529D02*
X216282000Y-150512600D01*
X206882000Y-150115529D02*
X206882000Y-150512600D01*
X189102000Y-150115529D02*
X189102000Y-150512600D01*
X192532000Y-150512600D02*
X192532000Y-153172600D01*
X207772000Y-150512600D02*
X207772000Y-153172600D01*
X216282000Y-153172600D02*
X216282000Y-159172600D01*
X205232000Y-150512600D02*
X205232000Y-153172600D01*
X204342000Y-159172600D02*
X204342000Y-153172600D01*
X157862000Y-159172600D02*
X158622000Y-159172600D01*
X250952000Y-150512600D02*
X250952000Y-153172600D01*
X188342000Y-159172600D02*
X189102000Y-159172600D01*
X200152000Y-150512600D02*
X200152000Y-153172600D01*
X155862000Y-153172600D02*
X155862000Y-159172600D01*
X184912000Y-150512600D02*
X184912000Y-153172600D01*
X220472000Y-150512600D02*
X220472000Y-153172600D01*
X162052000Y-150512600D02*
X162052000Y-153172600D01*
X216282000Y-159172600D02*
X217042000Y-159172600D01*
X156082000Y-159172600D02*
X156082000Y-153172600D01*
X178942000Y-150115529D02*
X178942000Y-150512600D01*
X160402000Y-150115529D02*
X160402000Y-150512600D01*
X242442000Y-150115529D02*
X242442000Y-150512600D01*
X234822000Y-159172600D02*
X234822000Y-153172600D01*
X155382000Y-153172600D02*
X155382000Y-159172600D01*
X198502000Y-153172600D02*
X198502000Y-159172600D01*
X252602000Y-150115529D02*
X252602000Y-150512600D01*
X173102000Y-159172600D02*
X173862000Y-159172600D01*
X253552000Y-153172600D02*
X154372000Y-153172600D01*
X162942000Y-159172600D02*
X163702000Y-159172600D01*
X234062000Y-159172600D02*
X234822000Y-159172600D01*
X163702000Y-150115529D02*
X163702000Y-150512600D01*
X206882000Y-159172600D02*
X206882000Y-153172600D01*
X154372000Y-150512600D02*
X253552000Y-150512600D01*
X236602000Y-159172600D02*
X237362000Y-159172600D01*
X235712000Y-150512600D02*
X235712000Y-153172600D01*
X231522000Y-153172600D02*
X231522000Y-159172600D01*
X189992000Y-150512600D02*
X189992000Y-153172600D01*
X247522000Y-150115529D02*
X247522000Y-150512600D01*
X208662000Y-150115529D02*
X208662000Y-150512600D01*
X155622000Y-153172600D02*
X155622000Y-159172600D01*
X193422000Y-150115529D02*
X193422000Y-150512600D01*
X223012000Y-150512600D02*
X223012000Y-153172600D01*
X155982000Y-153172600D02*
X155982000Y-159172600D01*
X173102000Y-153172600D02*
X173102000Y-159172600D01*
X244222000Y-153172600D02*
X244222000Y-159172600D01*
X186562000Y-159172600D02*
X186562000Y-153172600D01*
X234822000Y-150115529D02*
X234822000Y-150512600D01*
X211962000Y-150115529D02*
X211962000Y-150512600D01*
X222122000Y-159172600D02*
X222122000Y-153172600D01*
X241682000Y-153172600D02*
X241682000Y-159172600D01*
X221362000Y-159172600D02*
X222122000Y-159172600D01*
X198502000Y-159172600D02*
X199262000Y-159172600D01*
X170562000Y-150115529D02*
X170562000Y-150512600D01*
X237362000Y-159172600D02*
X237362000Y-153172600D01*
X165482000Y-159172600D02*
X166242000Y-159172600D01*
X156082000Y-150182600D02*
X156082000Y-150512600D01*
X223902000Y-159172600D02*
X224662000Y-159172600D01*
X160402000Y-153172600D02*
X160402000Y-159172600D01*
X231522000Y-159172600D02*
X232282000Y-159172600D01*
X251842000Y-159172600D02*
X252602000Y-159172600D01*
X191642000Y-150115529D02*
X191642000Y-150512600D01*
X248412000Y-150512600D02*
X248412000Y-153172600D01*
X178942000Y-159172600D02*
X178942000Y-153172600D01*
X250062000Y-150115529D02*
X250062000Y-150512600D01*
X224662000Y-150115529D02*
X224662000Y-150512600D01*
X155502000Y-153172600D02*
X155502000Y-159172600D01*
X231522000Y-150115529D02*
X231522000Y-150512600D01*
X215392000Y-150512600D02*
X215392000Y-153172600D01*
X174752000Y-150512600D02*
X174752000Y-153172600D01*
X211202000Y-150115529D02*
X211202000Y-150512600D01*
X214502000Y-159172600D02*
X214502000Y-153172600D01*
X171322000Y-150115529D02*
X171322000Y-150512600D01*
X178182000Y-153172600D02*
X178182000Y-159172600D01*
X154372000Y-153172600D02*
X154372000Y-150512600D01*
X168022000Y-159172600D02*
X168782000Y-159172600D01*
X237362000Y-150115529D02*
X237362000Y-150512600D01*
X162942000Y-153172600D02*
X162942000Y-159172600D01*
X181482000Y-150115529D02*
X181482000Y-150512600D01*
X211962000Y-159172600D02*
X211962000Y-153172600D01*
X239902000Y-159172600D02*
X239902000Y-153172600D01*
X187452000Y-150512600D02*
X187452000Y-153172600D01*
X244222000Y-150115529D02*
X244222000Y-150512600D01*
X229742000Y-150115529D02*
X229742000Y-150512600D01*
X155322000Y-150182600D02*
X155322000Y-150512600D01*
X217932000Y-150512600D02*
X217932000Y-153172600D01*
X157862000Y-153172600D02*
X157862000Y-159172600D01*
X236602000Y-153172600D02*
X236602000Y-159172600D01*
X203582000Y-153172600D02*
X203582000Y-159172600D01*
X209422000Y-159172600D02*
X209422000Y-153172600D01*
X178182000Y-150115529D02*
X178182000Y-150512600D01*
X213742000Y-153172600D02*
X213742000Y-159172600D01*
X225552000Y-150512600D02*
X225552000Y-153172600D01*
X247522000Y-159172600D02*
X247522000Y-153172600D01*
X168782000Y-159172600D02*
X168782000Y-153172600D01*
X201042000Y-153172600D02*
X201042000Y-159172600D01*
X197612000Y-150512600D02*
X197612000Y-153172600D01*
X228982000Y-153172600D02*
X228982000Y-159172600D01*
X201802000Y-159172600D02*
X201802000Y-153172600D01*
X173102000Y-150115529D02*
X173102000Y-150512600D01*
X157862000Y-150115529D02*
X157862000Y-150512600D01*
X246762000Y-153172600D02*
X246762000Y-159172600D01*
X155322000Y-159172600D02*
X156082000Y-159172600D01*
X155742000Y-153172600D02*
X155742000Y-159172600D01*
X246762000Y-159172600D02*
X247522000Y-159172600D01*
X206122000Y-150115529D02*
X206122000Y-150512600D01*
X234062000Y-150115529D02*
X234062000Y-150512600D01*
X173862000Y-150115529D02*
X173862000Y-150512600D01*
X241682000Y-150115529D02*
X241682000Y-150512600D01*
X209422000Y-150115529D02*
X209422000Y-150512600D01*
X226442000Y-153172600D02*
X226442000Y-159172600D01*
X224662000Y-159172600D02*
X224662000Y-153172600D01*
X177292000Y-150512600D02*
X177292000Y-153172600D01*
X253552000Y-150512600D02*
X253552000Y-153172600D01*
X155322000Y-153172600D02*
X155322000Y-159172600D01*
X190882000Y-153172600D02*
X190882000Y-159172600D01*
X180722000Y-153172600D02*
X180722000Y-159172600D01*
X171322000Y-159172600D02*
X171322000Y-153172600D01*
X218822000Y-150115529D02*
X218822000Y-150512600D01*
X195962000Y-153172600D02*
X195962000Y-159172600D01*
X196722000Y-159172600D02*
X196722000Y-153172600D01*
X165482000Y-153172600D02*
X165482000Y-159172600D01*
X180722000Y-150115529D02*
X180722000Y-150512600D01*
G04 #@! TD*
M02*
