G04 #@! TF.GenerationSoftware,KiCad,Pcbnew,6.0.7-f9a2dced07~116~ubuntu22.04.1*
G04 #@! TF.CreationDate,2022-09-25T15:05:21-07:00*
G04 #@! TF.ProjectId,rc2014compat-pico-vga,72633230-3134-4636-9f6d-7061742d7069,rev?*
G04 #@! TF.SameCoordinates,Original*
G04 #@! TF.FileFunction,Soldermask,Top*
G04 #@! TF.FilePolarity,Negative*
%FSLAX46Y46*%
G04 Gerber Fmt 4.6, Leading zero omitted, Abs format (unit mm)*
G04 Created by KiCad (PCBNEW 6.0.7-f9a2dced07~116~ubuntu22.04.1) date 2022-09-25 15:05:21*
%MOMM*%
%LPD*%
G01*
G04 APERTURE LIST*
G04 Aperture macros list*
%AMRoundRect*
0 Rectangle with rounded corners*
0 $1 Rounding radius*
0 $2 $3 $4 $5 $6 $7 $8 $9 X,Y pos of 4 corners*
0 Add a 4 corners polygon primitive as box body*
4,1,4,$2,$3,$4,$5,$6,$7,$8,$9,$2,$3,0*
0 Add four circle primitives for the rounded corners*
1,1,$1+$1,$2,$3*
1,1,$1+$1,$4,$5*
1,1,$1+$1,$6,$7*
1,1,$1+$1,$8,$9*
0 Add four rect primitives between the rounded corners*
20,1,$1+$1,$2,$3,$4,$5,0*
20,1,$1+$1,$4,$5,$6,$7,0*
20,1,$1+$1,$6,$7,$8,$9,0*
20,1,$1+$1,$8,$9,$2,$3,0*%
G04 Aperture macros list end*
%ADD10RoundRect,0.218750X-0.218750X-0.256250X0.218750X-0.256250X0.218750X0.256250X-0.218750X0.256250X0*%
%ADD11RoundRect,0.147500X0.147500X0.172500X-0.147500X0.172500X-0.147500X-0.172500X0.147500X-0.172500X0*%
%ADD12R,3.000000X1.000000*%
%ADD13C,0.700000*%
%ADD14R,0.900000X0.900000*%
%ADD15R,0.600000X1.200000*%
%ADD16RoundRect,0.147500X0.172500X-0.147500X0.172500X0.147500X-0.172500X0.147500X-0.172500X-0.147500X0*%
%ADD17RoundRect,0.147500X-0.172500X0.147500X-0.172500X-0.147500X0.172500X-0.147500X0.172500X0.147500X0*%
%ADD18RoundRect,0.147500X0.017678X-0.226274X0.226274X-0.017678X-0.017678X0.226274X-0.226274X0.017678X0*%
%ADD19RoundRect,0.147500X-0.147500X-0.172500X0.147500X-0.172500X0.147500X0.172500X-0.147500X0.172500X0*%
%ADD20RoundRect,0.218750X0.218750X0.256250X-0.218750X0.256250X-0.218750X-0.256250X0.218750X-0.256250X0*%
%ADD21R,1.700000X1.700000*%
%ADD22O,1.700000X1.700000*%
%ADD23C,4.000000*%
%ADD24R,1.600000X1.600000*%
%ADD25C,1.600000*%
%ADD26R,1.060000X0.650000*%
%ADD27R,0.900000X1.200000*%
%ADD28R,2.997200X0.762000*%
%ADD29C,0.650000*%
%ADD30R,1.750000X0.300000*%
%ADD31O,1.600000X1.000000*%
%ADD32O,2.100000X0.900000*%
%ADD33RoundRect,0.218750X-0.256250X0.218750X-0.256250X-0.218750X0.256250X-0.218750X0.256250X0.218750X0*%
%ADD34RoundRect,0.150000X0.150000X-0.650000X0.150000X0.650000X-0.150000X0.650000X-0.150000X-0.650000X0*%
%ADD35RoundRect,0.050000X-0.238649X-0.309359X0.309359X0.238649X0.238649X0.309359X-0.309359X-0.238649X0*%
%ADD36RoundRect,0.050000X0.238649X-0.309359X0.309359X-0.238649X-0.238649X0.309359X-0.309359X0.238649X0*%
%ADD37RoundRect,0.144000X0.000000X-2.059095X2.059095X0.000000X0.000000X2.059095X-2.059095X0.000000X0*%
%ADD38R,1.400000X1.200000*%
%ADD39R,2.150000X0.950000*%
%ADD40R,2.150000X3.250000*%
%ADD41C,1.000000*%
G04 APERTURE END LIST*
D10*
G04 #@! TO.C,R37*
X194335300Y-121920000D03*
X195910300Y-121920000D03*
G04 #@! TD*
D11*
G04 #@! TO.C,R21*
X224005000Y-136779000D03*
X223035000Y-136779000D03*
G04 #@! TD*
D12*
G04 #@! TO.C,SW5*
X235585000Y-143637000D03*
X235585000Y-141097000D03*
X235585000Y-138547000D03*
X240665000Y-143637000D03*
X240665000Y-141097000D03*
X240665000Y-138557000D03*
G04 #@! TD*
D13*
G04 #@! TO.C,SW1*
X181362000Y-104910000D03*
X183062000Y-104910000D03*
D14*
X183912000Y-106360000D03*
X180512000Y-106360000D03*
D15*
X184512000Y-104310000D03*
X179912000Y-104310000D03*
G04 #@! TD*
D16*
G04 #@! TO.C,C14*
X204266800Y-122201800D03*
X204266800Y-121231800D03*
G04 #@! TD*
D11*
G04 #@! TO.C,R10*
X224005000Y-144780000D03*
X223035000Y-144780000D03*
G04 #@! TD*
D17*
G04 #@! TO.C,C17*
X200761600Y-133474600D03*
X200761600Y-134444600D03*
G04 #@! TD*
D11*
G04 #@! TO.C,R13*
X224005000Y-130048000D03*
X223035000Y-130048000D03*
G04 #@! TD*
G04 #@! TO.C,R9*
X224005000Y-143637000D03*
X223035000Y-143637000D03*
G04 #@! TD*
D18*
G04 #@! TO.C,C8*
X211289853Y-129451147D03*
X211975747Y-128765253D03*
G04 #@! TD*
D19*
G04 #@! TO.C,R33*
X214094200Y-122732800D03*
X215064200Y-122732800D03*
G04 #@! TD*
D17*
G04 #@! TO.C,R16*
X164592000Y-125803800D03*
X164592000Y-126773800D03*
G04 #@! TD*
D19*
G04 #@! TO.C,R1*
X218844000Y-104902000D03*
X219814000Y-104902000D03*
G04 #@! TD*
D20*
G04 #@! TO.C,D1*
X245577500Y-104910000D03*
X244002500Y-104910000D03*
G04 #@! TD*
D19*
G04 #@! TO.C,R35*
X177467400Y-134569200D03*
X178437400Y-134569200D03*
G04 #@! TD*
D17*
G04 #@! TO.C,C11*
X197002400Y-130985400D03*
X197002400Y-131955400D03*
G04 #@! TD*
D11*
G04 #@! TO.C,R3*
X224005000Y-137922000D03*
X223035000Y-137922000D03*
G04 #@! TD*
G04 #@! TO.C,R5*
X224005000Y-141351000D03*
X223035000Y-141351000D03*
G04 #@! TD*
D16*
G04 #@! TO.C,C16*
X157226000Y-132311000D03*
X157226000Y-131341000D03*
G04 #@! TD*
D13*
G04 #@! TO.C,SW4*
X233940000Y-104910000D03*
X235640000Y-104910000D03*
D14*
X236490000Y-106360000D03*
X233090000Y-106360000D03*
D15*
X232490000Y-104310000D03*
X237090000Y-104310000D03*
G04 #@! TD*
D11*
G04 #@! TO.C,R24*
X224005000Y-122224800D03*
X223035000Y-122224800D03*
G04 #@! TD*
D13*
G04 #@! TO.C,SW6*
X171362000Y-104910000D03*
X173062000Y-104910000D03*
D14*
X173912000Y-106360000D03*
X170512000Y-106360000D03*
D15*
X169912000Y-104310000D03*
X174512000Y-104310000D03*
G04 #@! TD*
D11*
G04 #@! TO.C,R30*
X224005000Y-127812800D03*
X223035000Y-127812800D03*
G04 #@! TD*
D21*
G04 #@! TO.C,J1*
X216149300Y-110032800D03*
D22*
X213609300Y-110032800D03*
X211069300Y-110032800D03*
X208529300Y-110032800D03*
X205989300Y-110032800D03*
X203449300Y-110032800D03*
X200909300Y-110032800D03*
X198369300Y-110032800D03*
X195829300Y-110032800D03*
X193289300Y-110032800D03*
G04 #@! TD*
D11*
G04 #@! TO.C,C3*
X165839000Y-134823200D03*
X164869000Y-134823200D03*
G04 #@! TD*
D23*
G04 #@! TO.C,J2*
X247605669Y-112737000D03*
X247605669Y-137737000D03*
D24*
X245555669Y-120922000D03*
D25*
X245555669Y-123212000D03*
X245555669Y-125502000D03*
X245555669Y-127792000D03*
X245555669Y-130082000D03*
X247535669Y-119777000D03*
X247535669Y-122067000D03*
X247535669Y-124357000D03*
X247535669Y-126647000D03*
X247535669Y-128937000D03*
X249515669Y-120922000D03*
X249515669Y-123212000D03*
X249515669Y-125502000D03*
X249515669Y-127792000D03*
X249515669Y-130082000D03*
G04 #@! TD*
D26*
G04 #@! TO.C,U1*
X246296000Y-143525200D03*
X246296000Y-144475200D03*
X246296000Y-145425200D03*
X248496000Y-145425200D03*
X248496000Y-143525200D03*
G04 #@! TD*
D11*
G04 #@! TO.C,R23*
X224005000Y-123342400D03*
X223035000Y-123342400D03*
G04 #@! TD*
D10*
G04 #@! TO.C,D3*
X204002500Y-104910000D03*
X205577500Y-104910000D03*
G04 #@! TD*
D11*
G04 #@! TO.C,R2*
X224005000Y-139065000D03*
X223035000Y-139065000D03*
G04 #@! TD*
G04 #@! TO.C,R7*
X224005000Y-142494000D03*
X223035000Y-142494000D03*
G04 #@! TD*
D16*
G04 #@! TO.C,C6*
X211734400Y-125656200D03*
X211734400Y-124686200D03*
G04 #@! TD*
D11*
G04 #@! TO.C,R32*
X224005000Y-119989600D03*
X223035000Y-119989600D03*
G04 #@! TD*
G04 #@! TO.C,R29*
X224005000Y-128930400D03*
X223035000Y-128930400D03*
G04 #@! TD*
D27*
G04 #@! TO.C,D2*
X195555600Y-145542000D03*
X198855600Y-145542000D03*
G04 #@! TD*
D19*
G04 #@! TO.C,R22*
X238910000Y-104902000D03*
X239880000Y-104902000D03*
G04 #@! TD*
D16*
G04 #@! TO.C,C10*
X199948800Y-122252600D03*
X199948800Y-121282600D03*
G04 #@! TD*
D11*
G04 #@! TO.C,R27*
X226164000Y-126695200D03*
X225194000Y-126695200D03*
G04 #@! TD*
D16*
G04 #@! TO.C,C18*
X207314800Y-124792600D03*
X207314800Y-123822600D03*
G04 #@! TD*
D11*
G04 #@! TO.C,R38*
X208130000Y-104902000D03*
X207160000Y-104902000D03*
G04 #@! TD*
D13*
G04 #@! TO.C,SW2*
X215640000Y-104910000D03*
X213940000Y-104910000D03*
D14*
X216490000Y-106360000D03*
X213090000Y-106360000D03*
D15*
X212490000Y-104310000D03*
X217090000Y-104310000D03*
G04 #@! TD*
D28*
G04 #@! TO.C,J6*
X157226000Y-134239000D03*
X160782000Y-134239000D03*
X157226000Y-135509000D03*
X160782000Y-135509000D03*
X157226000Y-136779000D03*
X160782000Y-136779000D03*
X157226000Y-138049000D03*
X160782000Y-138049000D03*
X157226000Y-139319000D03*
X160782000Y-139319000D03*
G04 #@! TD*
D13*
G04 #@! TO.C,SW3*
X223940000Y-104910000D03*
X225640000Y-104910000D03*
D14*
X226490000Y-106360000D03*
X223090000Y-106360000D03*
D15*
X227090000Y-104310000D03*
X222490000Y-104310000D03*
G04 #@! TD*
D11*
G04 #@! TO.C,R20*
X224005000Y-135636000D03*
X223035000Y-135636000D03*
G04 #@! TD*
D29*
G04 #@! TO.C,J3*
X158782000Y-126334000D03*
X158782000Y-120554000D03*
D30*
X160122000Y-120094000D03*
X160122000Y-120894000D03*
X160122000Y-122194000D03*
X160122000Y-123194000D03*
X160122000Y-123694000D03*
X160122000Y-124694000D03*
X160122000Y-125994000D03*
X160122000Y-126794000D03*
X160122000Y-126494000D03*
X160122000Y-125694000D03*
X160122000Y-125194000D03*
X160122000Y-124194000D03*
X160122000Y-122694000D03*
X160122000Y-121694000D03*
X160122000Y-121194000D03*
X160122000Y-120394000D03*
D31*
X155102000Y-127764000D03*
D32*
X159282000Y-119124000D03*
X159282000Y-127764000D03*
D31*
X155102000Y-119124000D03*
G04 #@! TD*
D11*
G04 #@! TO.C,C15*
X195607800Y-124815600D03*
X194637800Y-124815600D03*
G04 #@! TD*
D33*
G04 #@! TO.C,C1*
X216154000Y-113106100D03*
X216154000Y-114681100D03*
G04 #@! TD*
D11*
G04 #@! TO.C,R17*
X226164000Y-134518400D03*
X225194000Y-134518400D03*
G04 #@! TD*
G04 #@! TO.C,R28*
X224005000Y-126695200D03*
X223035000Y-126695200D03*
G04 #@! TD*
G04 #@! TO.C,R15*
X224005000Y-133400800D03*
X223035000Y-133400800D03*
G04 #@! TD*
D19*
G04 #@! TO.C,C5*
X250721000Y-143510000D03*
X251691000Y-143510000D03*
G04 #@! TD*
D34*
G04 #@! TO.C,U3*
X180365400Y-134562400D03*
X181635400Y-134562400D03*
X182905400Y-134562400D03*
X184175400Y-134562400D03*
X184175400Y-127362400D03*
X182905400Y-127362400D03*
X181635400Y-127362400D03*
X180365400Y-127362400D03*
G04 #@! TD*
D35*
G04 #@! TO.C,U2*
X199180143Y-129027302D03*
X199462986Y-129310145D03*
X199745828Y-129592987D03*
X200028671Y-129875830D03*
X200311514Y-130158673D03*
X200594356Y-130441515D03*
X200877199Y-130724358D03*
X201160042Y-131007201D03*
X201442885Y-131290044D03*
X201725727Y-131572886D03*
X202008570Y-131855729D03*
X202291413Y-132138572D03*
X202574255Y-132421414D03*
X202857098Y-132704257D03*
D36*
X204041502Y-132704257D03*
X204324345Y-132421414D03*
X204607187Y-132138572D03*
X204890030Y-131855729D03*
X205172873Y-131572886D03*
X205455715Y-131290044D03*
X205738558Y-131007201D03*
X206021401Y-130724358D03*
X206304244Y-130441515D03*
X206587086Y-130158673D03*
X206869929Y-129875830D03*
X207152772Y-129592987D03*
X207435614Y-129310145D03*
X207718457Y-129027302D03*
D35*
X207718457Y-127842898D03*
X207435614Y-127560055D03*
X207152772Y-127277213D03*
X206869929Y-126994370D03*
X206587086Y-126711527D03*
X206304244Y-126428685D03*
X206021401Y-126145842D03*
X205738558Y-125862999D03*
X205455715Y-125580156D03*
X205172873Y-125297314D03*
X204890030Y-125014471D03*
X204607187Y-124731628D03*
X204324345Y-124448786D03*
X204041502Y-124165943D03*
D36*
X202857098Y-124165943D03*
X202574255Y-124448786D03*
X202291413Y-124731628D03*
X202008570Y-125014471D03*
X201725727Y-125297314D03*
X201442885Y-125580156D03*
X201160042Y-125862999D03*
X200877199Y-126145842D03*
X200594356Y-126428685D03*
X200311514Y-126711527D03*
X200028671Y-126994370D03*
X199745828Y-127277213D03*
X199462986Y-127560055D03*
X199180143Y-127842898D03*
D37*
X203449300Y-128435100D03*
G04 #@! TD*
D11*
G04 #@! TO.C,R14*
X224005000Y-132283200D03*
X223035000Y-132283200D03*
G04 #@! TD*
D16*
G04 #@! TO.C,C12*
X180340000Y-125199000D03*
X180340000Y-124229000D03*
G04 #@! TD*
G04 #@! TO.C,R39*
X170484800Y-109044600D03*
X170484800Y-108074600D03*
G04 #@! TD*
G04 #@! TO.C,C19*
X202336400Y-122354200D03*
X202336400Y-121384200D03*
G04 #@! TD*
D11*
G04 #@! TO.C,C9*
X195607800Y-125882400D03*
X194637800Y-125882400D03*
G04 #@! TD*
D38*
G04 #@! TO.C,X1*
X213479200Y-126021200D03*
X215679200Y-126021200D03*
X215679200Y-124321200D03*
X213479200Y-124321200D03*
G04 #@! TD*
D10*
G04 #@! TO.C,R36*
X194335300Y-123444000D03*
X195910300Y-123444000D03*
G04 #@! TD*
D19*
G04 #@! TO.C,R34*
X176756200Y-104902000D03*
X177726200Y-104902000D03*
G04 #@! TD*
D39*
G04 #@! TO.C,VR1*
X168397600Y-130237200D03*
X168397600Y-132537200D03*
X168397600Y-134837200D03*
D40*
X174197600Y-132537200D03*
G04 #@! TD*
D11*
G04 #@! TO.C,C4*
X165839000Y-132537200D03*
X164869000Y-132537200D03*
G04 #@! TD*
D20*
G04 #@! TO.C,C2*
X195351500Y-106984800D03*
X193776500Y-106984800D03*
G04 #@! TD*
D11*
G04 #@! TO.C,R4*
X224005000Y-140208000D03*
X223035000Y-140208000D03*
G04 #@! TD*
G04 #@! TO.C,R6*
X226164000Y-142494000D03*
X225194000Y-142494000D03*
G04 #@! TD*
G04 #@! TO.C,R12*
X224005000Y-131165600D03*
X223035000Y-131165600D03*
G04 #@! TD*
D16*
G04 #@! TO.C,R19*
X164592000Y-121389000D03*
X164592000Y-120419000D03*
G04 #@! TD*
D18*
G04 #@! TO.C,C13*
X211188253Y-131076747D03*
X211874147Y-130390853D03*
G04 #@! TD*
D11*
G04 #@! TO.C,R18*
X224005000Y-134518400D03*
X223035000Y-134518400D03*
G04 #@! TD*
G04 #@! TO.C,R26*
X224005000Y-125577600D03*
X223035000Y-125577600D03*
G04 #@! TD*
G04 #@! TO.C,R25*
X224005000Y-124460000D03*
X223035000Y-124460000D03*
G04 #@! TD*
D19*
G04 #@! TO.C,R8*
X241323000Y-104902000D03*
X242293000Y-104902000D03*
G04 #@! TD*
D11*
G04 #@! TO.C,R31*
X224005000Y-121107200D03*
X223035000Y-121107200D03*
G04 #@! TD*
D16*
G04 #@! TO.C,C7*
X217424000Y-125656200D03*
X217424000Y-124686200D03*
G04 #@! TD*
D19*
G04 #@! TO.C,R11*
X228877000Y-104902000D03*
X229847000Y-104902000D03*
G04 #@! TD*
D21*
G04 #@! TO.C,J5*
X155702000Y-151612600D03*
D22*
X158242000Y-151612600D03*
X160782000Y-151612600D03*
X163322000Y-151612600D03*
X165862000Y-151612600D03*
X168402000Y-151612600D03*
X170942000Y-151612600D03*
X173482000Y-151612600D03*
X176022000Y-151612600D03*
X178562000Y-151612600D03*
X181102000Y-151612600D03*
X183642000Y-151612600D03*
X186182000Y-151612600D03*
X188722000Y-151612600D03*
X191262000Y-151612600D03*
X193802000Y-151612600D03*
X196342000Y-151612600D03*
X198882000Y-151612600D03*
X201422000Y-151612600D03*
X203962000Y-151612600D03*
X206502000Y-151612600D03*
X209042000Y-151612600D03*
X211582000Y-151612600D03*
X214122000Y-151612600D03*
X216662000Y-151612600D03*
X219202000Y-151612600D03*
X221742000Y-151612600D03*
X224282000Y-151612600D03*
X226822000Y-151612600D03*
X229362000Y-151612600D03*
X231902000Y-151612600D03*
X234442000Y-151612600D03*
X236982000Y-151612600D03*
X239522000Y-151612600D03*
X242062000Y-151612600D03*
X244602000Y-151612600D03*
X247142000Y-151612600D03*
X249682000Y-151612600D03*
D41*
X252222000Y-151612600D03*
G04 #@! TD*
D21*
G04 #@! TO.C,J4*
X155702000Y-149072600D03*
D22*
X158242000Y-149072600D03*
X160782000Y-149072600D03*
X163322000Y-149072600D03*
X165862000Y-149072600D03*
X168402000Y-149072600D03*
X170942000Y-149072600D03*
X173482000Y-149072600D03*
X176022000Y-149072600D03*
X178562000Y-149072600D03*
X181102000Y-149072600D03*
X183642000Y-149072600D03*
X186182000Y-149072600D03*
X188722000Y-149072600D03*
X191262000Y-149072600D03*
X193802000Y-149072600D03*
X196342000Y-149072600D03*
X198882000Y-149072600D03*
X201422000Y-149072600D03*
X203962000Y-149072600D03*
X206502000Y-149072600D03*
X209042000Y-149072600D03*
X211582000Y-149072600D03*
X214122000Y-149072600D03*
X216662000Y-149072600D03*
X219202000Y-149072600D03*
X221742000Y-149072600D03*
X224282000Y-149072600D03*
X226822000Y-149072600D03*
X229362000Y-149072600D03*
X231902000Y-149072600D03*
X234442000Y-149072600D03*
X236982000Y-149072600D03*
X239522000Y-149072600D03*
X242062000Y-149072600D03*
X244602000Y-149072600D03*
X247142000Y-149072600D03*
X249682000Y-149072600D03*
D41*
X252222000Y-149072600D03*
G04 #@! TD*
M02*
